<?xml version="1.0" standalone="no"?>
<!DOCTYPE svg PUBLIC "-//W3C//DTD SVG 20010904//EN"
 "http://www.w3.org/TR/2001/REC-SVG-20010904/DTD/svg10.dtd">
<svg version="1.0" xmlns="http://www.w3.org/2000/svg"
 width="1024.000000pt" height="580.000000pt" viewBox="0 0 1024.000000 580.000000"
 preserveAspectRatio="xMidYMid meet">

<g transform="translate(0.000000,580.000000) scale(0.100000,-0.100000)"
fill="#000000" stroke="none">
<path d="M0 2900 l0 -2900 5120 0 5120 0 0 2900 0 2900 -5120 0 -5120 0 0
-2900z m5267 1651 c30 -8 31 -23 3 -38 -81 -41 -425 -14 -381 30 22 22 304 28
378 8z m-3114 -2 c62 -13 69 -21 35 -41 -30 -17 -276 -15 -338 2 -59 16 -79
31 -53 41 29 12 295 10 356 -2z m6232 2 c67 -26 -162 -69 -304 -56 -116 10
-147 35 -63 53 56 11 338 14 367 3z m-5937 -127 c53 -9 102 -20 108 -25 6 -5
14 -6 17 -2 4 3 7 2 7 -4 0 -6 12 -14 28 -18 40 -9 104 -54 96 -67 -4 -7 -3
-8 5 -4 6 4 9 12 6 17 -4 5 -4 9 -1 9 3 0 18 -18 32 -40 15 -22 29 -38 33 -36
4 3 16 -16 28 -40 12 -25 18 -42 13 -39 -17 11 -11 -12 7 -26 9 -8 14 -9 10
-3 -4 7 0 15 8 18 12 4 13 2 7 -12 -5 -9 -7 -24 -5 -32 3 -10 2 -11 -4 -3 -6
8 -12 4 -20 -13 -6 -13 -7 -21 -1 -18 5 3 9 0 7 -7 -4 -33 1 -50 14 -43 8 6 8
3 -1 -9 -13 -16 -8 -42 7 -33 3 3 7 -4 7 -15 0 -19 -1 -19 -13 -3 -11 15 -12
11 -8 -26 3 -29 11 -50 24 -60 14 -10 19 -23 16 -37 -2 -15 3 -26 15 -33 19
-10 17 -47 -4 -63 -13 -10 29 -4 59 9 17 6 18 5 8 -7 -7 -9 -9 -33 -3 -74 4
-33 8 -51 9 -40 1 16 3 17 10 6 11 -18 3 -43 -12 -34 -6 3 -7 1 -3 -5 4 -6 13
-9 20 -6 18 7 30 -12 15 -22 -8 -5 -9 -3 -4 6 6 9 4 11 -4 5 -9 -5 -10 -10 -2
-18 6 -6 11 -19 11 -28 0 -10 4 -20 8 -23 5 -3 7 9 4 27 -2 23 -1 28 6 18 6
-8 8 -21 4 -29 -4 -11 -1 -13 7 -7 10 6 11 3 1 -14 -6 -12 -16 -19 -23 -15 -9
5 -9 4 0 -6 9 -10 8 -19 -4 -39 -15 -26 -15 -26 7 2 20 25 49 39 35 17 -3 -5
-1 -10 5 -10 7 0 9 -7 6 -16 -5 -14 -4 -15 8 -5 13 11 14 8 6 -18 -9 -32 -3
-72 13 -82 5 -4 4 -16 -4 -30 -11 -22 -11 -23 5 -10 14 12 16 12 10 -4 -5 -11
-3 -16 3 -12 5 3 9 -3 7 -16 -1 -12 -3 -26 -3 -32 -1 -5 -5 -4 -10 4 -5 8 -7
21 -4 30 4 12 3 13 -5 3 -5 -8 -12 -13 -16 -13 -3 1 -5 -2 -3 -6 1 -5 5 -7 10
-6 11 4 8 -15 -4 -22 -5 -4 -9 -17 -8 -28 1 -12 -3 -35 -10 -51 -6 -16 -9 -31
-6 -34 3 -3 5 0 5 7 0 7 5 9 10 6 6 -4 7 -11 4 -17 -4 -7 -2 -8 4 -4 7 4 12 2
12 -4 0 -7 7 -5 16 4 17 18 49 22 39 6 -4 -6 -11 -7 -17 -4 -7 5 -8 2 -3 -5 9
-15 -14 -63 -26 -55 -5 2 -2 -8 6 -23 13 -24 13 -29 0 -36 -9 -4 -13 -12 -10
-16 2 -5 -3 -15 -12 -22 -12 -10 -14 -10 -9 -1 10 17 -9 15 -24 -3 -11 -13
-10 -14 6 -9 18 7 18 6 3 -12 -31 -37 -32 -49 -2 -16 34 35 46 41 37 17 -4 -8
-10 -15 -15 -15 -4 0 -13 -10 -19 -22 -11 -22 -10 -22 4 -4 12 15 16 16 16 5
1 -8 7 -3 15 11 l15 25 -6 -31 c-4 -23 -2 -33 10 -37 9 -4 16 -16 16 -28 0
-21 0 -21 20 2 l19 24 -16 -37 c-9 -20 -19 -35 -23 -33 -3 2 -23 -10 -44 -26
-22 -16 -35 -29 -29 -29 5 0 13 3 17 8 4 4 11 7 14 7 4 1 17 6 29 13 12 7 24
8 27 3 8 -12 -20 -34 -33 -27 -6 4 -15 -3 -21 -14 -6 -11 -15 -18 -21 -15 -5
4 -9 1 -9 -4 0 -6 5 -11 10 -11 6 0 9 -5 8 -11 -2 -6 4 -14 12 -16 9 -3 11 -1
5 4 -16 13 -16 33 1 33 8 0 13 4 10 8 -2 4 4 9 15 9 17 2 18 0 4 -13 -15 -16
-21 -49 -7 -40 4 2 8 -5 9 -17 0 -12 -1 -16 -4 -9 -5 14 -53 17 -53 3 0 -5 10
-7 23 -4 16 4 19 2 8 -5 -16 -12 -25 -66 -9 -56 5 3 8 15 5 25 -3 11 -1 17 4
13 5 -3 9 -12 9 -21 0 -9 6 -13 15 -9 8 3 15 1 15 -5 0 -6 7 -3 16 6 9 9 18
14 21 11 3 -2 -10 -18 -27 -35 -22 -21 -30 -36 -26 -48 6 -17 5 -17 -8 0 -13
16 -14 16 -20 -8 -4 -16 -11 -23 -18 -19 -7 4 -8 3 -4 -5 4 -6 11 -9 15 -7 4
3 8 -2 8 -10 0 -8 -6 -13 -13 -10 -20 8 -28 -13 -12 -31 9 -12 9 -15 1 -9 -8
4 -13 1 -13 -9 0 -9 -4 -14 -9 -10 -5 3 -13 -4 -16 -16 -6 -18 -9 -19 -23 -6
-10 9 -48 18 -87 22 l-70 7 -22 -63 c-83 -244 -102 -293 -108 -274 -4 11 -30
90 -58 175 l-52 155 -42 3 -43 3 0 -38 c0 -75 -11 -113 -32 -113 -25 0 -43 18
-51 51 -10 41 -45 78 -85 89 -20 5 -85 10 -144 10 l-108 0 0 -205 c0 -195 1
-205 19 -205 11 0 22 6 24 13 4 7 6 6 6 -5 1 -14 -11 -16 -79 -17 -44 0 -80 3
-80 8 0 4 11 6 25 3 15 -2 25 0 25 7 0 6 -34 99 -77 206 l-76 195 -32 0 c-31
0 -33 -3 -65 -87 -18 -49 -37 -92 -42 -98 -7 -8 -3 40 8 72 2 7 0 13 -5 13 -5
0 -12 -12 -16 -27 -3 -15 -20 -63 -37 -106 -27 -72 -33 -80 -74 -99 -24 -12
-46 -19 -49 -16 -3 3 12 68 33 144 60 211 59 204 25 204 l-29 0 -43 -175 -43
-176 -44 171 c-24 94 -44 173 -44 176 0 3 -16 4 -36 2 l-36 -3 -48 -163 c-26
-90 -50 -165 -52 -167 -2 -3 -19 66 -38 153 -18 86 -37 165 -42 175 -5 10 -5
17 1 17 6 0 7 7 4 17 -4 11 -3 14 5 9 8 -4 10 -2 6 7 -3 8 -1 18 5 22 14 8 14
42 1 50 -7 4 -9 -3 -5 -22 5 -24 5 -25 -5 -10 -7 10 -9 24 -7 31 3 8 0 19 -6
25 -6 6 -7 11 -1 11 5 0 15 -5 22 -12 6 -6 15 -9 19 -5 4 4 1 13 -5 19 -14 14
-16 32 -3 23 6 -3 9 3 8 14 -1 15 -4 17 -14 9 -11 -8 -12 -7 -6 8 3 10 10 22
15 25 11 7 -1 41 -12 34 -5 -3 -7 2 -6 11 3 18 36 41 36 25 0 -5 -8 -12 -17
-15 -14 -4 -14 -4 2 -3 11 1 26 -2 33 -6 7 -5 12 -4 12 2 0 6 -5 11 -11 11 -6
0 -9 6 -6 14 4 10 0 14 -14 11 -21 -4 -27 19 -7 31 7 4 8 3 4 -4 -4 -7 -3 -12
3 -12 23 0 19 20 -6 39 -26 19 -27 20 -7 21 12 0 25 -7 28 -16 5 -14 7 -14 22
0 8 9 20 13 26 10 7 -4 8 -2 4 5 -4 6 -11 9 -16 6 -4 -3 -14 8 -22 25 -14 32
-24 38 -31 18 -4 -10 -7 -10 -18 0 -8 7 -14 18 -14 24 0 6 -6 13 -13 16 -8 2
-10 -2 -5 -14 4 -12 3 -15 -6 -10 -7 5 -10 14 -7 22 3 8 2 14 -2 14 -4 1 -20
12 -37 26 -32 28 -18 23 27 -8 15 -10 43 -25 62 -33 l36 -15 -1 37 c-1 34 -2
35 -9 13 -4 -14 -8 -19 -9 -12 -1 6 -7 12 -15 12 -8 0 -22 10 -31 23 -13 19
-17 20 -25 7 -8 -11 -9 -9 -6 10 4 31 -11 63 -26 54 -7 -5 -9 -2 -5 8 3 9 0
21 -6 28 -7 7 5 3 26 -9 20 -13 37 -18 37 -12 0 5 -14 18 -30 28 -17 10 -28
23 -26 30 3 8 -1 10 -12 7 -14 -5 -15 -4 -2 5 19 14 41 14 37 0 -1 -6 14 -22
33 -37 33 -26 33 -26 18 -3 -9 13 -14 29 -12 35 2 6 -9 17 -26 23 -16 6 -30
18 -30 27 0 9 -6 13 -14 10 -8 -3 -17 -1 -20 4 -3 5 10 8 29 6 35 -2 39 2 35
40 -1 11 3 15 9 12 6 -4 11 -13 11 -20 0 -7 7 -21 16 -32 8 -10 13 -13 9 -7
-3 7 -8 23 -10 35 -3 12 -8 24 -12 27 -26 19 -36 80 -11 65 6 -4 5 3 -1 15
-12 22 -6 45 9 36 5 -3 12 0 16 6 4 7 3 9 -3 6 -6 -4 -13 2 -16 14 -5 17 -3
18 9 8 8 -6 17 -9 21 -6 3 4 -1 9 -9 12 -11 5 -14 24 -12 88 1 52 6 81 13 80
6 -2 8 4 4 14 -4 11 -3 14 6 9 9 -6 10 -1 5 18 -4 18 -2 26 7 26 10 0 10 3 1
12 -18 18 -14 27 11 21 18 -4 19 -3 7 6 -12 8 -12 11 -1 11 10 0 9 6 -4 27
-17 25 -17 26 0 19 13 -4 16 -2 11 9 -3 9 0 15 9 15 18 0 20 -21 4 -37 -8 -8
-8 -13 0 -17 6 -4 11 0 11 8 0 9 6 15 13 13 9 -1 11 15 10 58 -1 43 1 53 7 35
4 -14 8 -19 9 -12 1 7 6 10 11 7 11 -7 13 6 4 29 -3 9 -10 13 -15 10 -5 -3 -9
-3 -9 0 0 19 22 11 40 -17 12 -17 19 -23 14 -12 -8 22 -8 26 -3 102 l4 52 23
-22 c18 -17 22 -18 16 -4 -3 9 -1 24 6 33 10 12 11 17 1 27 -10 9 -11 8 -6 -4
4 -10 0 -19 -8 -22 -10 -4 -13 7 -12 49 0 30 -3 54 -7 54 -4 0 -8 -8 -8 -17 0
-9 -3 -13 -7 -10 -3 4 -1 17 5 30 6 12 16 35 22 50 5 16 14 25 20 22 7 -4 7
-12 0 -25 -7 -13 -5 -21 7 -31 9 -8 14 -9 11 -4 -4 6 -3 17 2 25 6 10 4 21 -7
32 -9 10 -13 25 -9 34 5 14 4 15 -9 4 -9 -8 -15 -8 -15 -2 0 6 4 13 9 17 5 3
13 19 16 36 5 23 9 28 16 18 6 -10 9 -7 10 11 1 18 3 20 6 7 5 -18 5 -18 18 0
10 14 11 21 2 32 -10 11 -8 13 11 7 12 -4 22 -4 21 1 -3 20 2 27 11 13 8 -13
10 -12 10 4 0 11 2 17 5 14 3 -3 20 8 36 23 31 29 59 38 59 19 0 -6 10 -1 22
10 12 11 28 18 35 16 7 -3 13 -1 13 3 0 5 28 12 63 16 34 4 71 9 82 12 99 23
490 22 633 -3z m2952 12 c63 -7 140 -31 201 -62 37 -18 70 -30 74 -26 5 4 5 1
1 -6 -4 -6 0 -19 8 -28 15 -14 16 -14 17 3 0 10 3 13 6 5 2 -6 9 -10 14 -6 5
3 9 -2 9 -10 0 -9 6 -16 14 -16 12 0 38 -50 33 -62 -1 -2 3 2 9 9 6 7 15 8 25
2 11 -7 11 -9 -4 -9 -16 0 -15 -4 5 -44 13 -24 26 -42 30 -40 4 2 9 0 13 -6 3
-5 1 -10 -5 -10 -6 0 -8 -5 -5 -10 4 -6 10 -8 15 -5 5 3 7 -6 4 -20 -3 -16 0
-24 8 -23 6 2 13 -6 15 -17 1 -11 0 -14 -3 -7 -10 22 -26 13 -18 -10 6 -20 5
-21 -8 -10 -13 10 -15 8 -12 -14 2 -19 -3 -28 -17 -31 -18 -5 -28 -23 -11 -23
14 1 44 29 39 37 -3 5 2 9 12 9 10 0 18 -6 18 -13 0 -7 -5 -9 -10 -6 -6 4 -8
-1 -4 -11 4 -10 3 -15 -3 -11 -6 3 -10 2 -10 -4 0 -22 20 -20 52 6 l33 27 -33
-35 c-18 -20 -29 -39 -25 -43 4 -4 0 -4 -10 0 -14 5 -17 1 -15 -29 2 -19 7
-33 12 -29 5 3 6 -2 3 -12 -4 -9 -3 -15 2 -12 4 3 13 -10 19 -29 7 -26 7 -35
-1 -35 -7 0 -5 -5 3 -10 8 -5 15 -13 15 -17 1 -17 26 -53 38 -53 8 0 8 3 -2 9
-8 5 -9 11 -3 15 6 3 13 -3 17 -14 4 -11 10 -18 14 -15 5 2 8 -6 7 -18 -1 -12
-8 -21 -15 -19 -7 1 -10 -2 -6 -8 9 -14 32 -13 38 3 3 6 6 0 6 -15 1 -16 5
-28 9 -28 5 0 7 -13 4 -30 -2 -18 0 -30 7 -30 6 0 8 8 5 18 -5 14 -3 14 7 -2
10 -16 9 -21 -4 -31 -9 -7 -14 -15 -10 -18 3 -4 13 -1 22 6 14 10 14 10 3 -5
-8 -9 -10 -23 -6 -29 4 -7 3 -9 -4 -5 -6 4 -10 -1 -9 -13 1 -15 4 -17 14 -9
17 13 17 -4 1 -21 -10 -11 -10 -13 0 -7 14 9 15 1 3 -23 -7 -13 -6 -18 3 -18
7 0 13 7 12 15 0 8 5 16 12 18 7 1 8 0 3 -2 -6 -3 -7 -12 -4 -21 3 -8 0 -19
-8 -25 -11 -7 -8 -9 8 -5 12 3 22 2 21 -2 -3 -25 3 -41 15 -35 8 6 8 3 -2 -9
-8 -10 -11 -27 -7 -41 4 -16 1 -28 -8 -33 -12 -7 -11 -10 2 -23 14 -13 15 -12
9 3 -3 9 -2 17 3 17 5 0 10 10 12 23 3 20 4 20 9 -5 4 -15 2 -25 -3 -22 -5 3
-8 -16 -7 -45 2 -28 -1 -54 -6 -58 -4 -5 -5 1 -1 12 6 16 5 18 -5 8 -20 -20 5
-41 27 -22 14 12 16 11 12 -6 -2 -11 -9 -19 -15 -18 -6 1 -13 -4 -16 -11 -3
-8 1 -13 11 -12 10 1 18 -8 20 -21 2 -13 -1 -23 -6 -23 -6 0 -9 8 -7 18 1 9 0
11 -2 5 -3 -10 -10 -10 -24 -3 -16 9 -21 7 -30 -17 -5 -15 -8 -35 -6 -45 3 -9
-1 -19 -9 -22 -8 -3 -14 -11 -14 -17 0 -8 4 -8 15 1 17 15 19 7 5 -21 -8 -15
-7 -19 5 -19 13 0 19 12 16 32 0 4 7 4 16 1 11 -4 14 -3 9 5 -5 8 -1 10 11 6
16 -5 16 -4 3 8 -8 7 -15 27 -15 44 -1 28 1 30 17 21 9 -6 14 -14 10 -17 -22
-16 8 -67 32 -53 5 3 6 1 2 -6 -4 -6 -11 -9 -16 -6 -5 3 -14 -4 -21 -16 -7
-14 -8 -24 -1 -28 6 -4 3 -19 -9 -41 -15 -29 -25 -28 -20 3 1 4 -10 5 -24 1
-18 -4 -27 -2 -31 11 -5 13 -9 14 -15 3 -12 -18 -11 -38 2 -38 5 0 7 4 4 10
-3 6 1 7 9 4 9 -3 13 -10 10 -15 -3 -5 -1 -9 5 -9 6 0 8 -7 5 -15 -4 -8 -17
-15 -29 -15 -13 0 -26 -4 -29 -9 -4 -5 8 -7 25 -4 21 3 29 1 24 -6 -3 -6 -2
-11 4 -11 5 0 13 5 16 10 3 6 1 10 -5 10 -7 0 -8 6 -2 18 5 9 7 23 5 30 -3 6
1 12 7 12 8 0 10 -10 7 -25 -4 -24 -3 -25 17 -11 11 8 20 19 19 24 -1 6 3 12
11 15 9 4 12 -4 11 -27 -2 -23 -6 -31 -20 -29 -10 1 -29 -12 -43 -29 -16 -18
-32 -28 -43 -25 -12 3 -16 0 -12 -9 4 -11 10 -11 26 -3 17 10 19 9 14 -5 -4
-10 -3 -15 3 -11 13 8 13 -1 -1 -28 -10 -21 -9 -21 5 -3 9 11 24 20 35 21 11
1 27 8 37 16 16 13 16 12 3 -9 -8 -12 -20 -20 -26 -17 -8 2 -13 -4 -13 -15 0
-14 -5 -18 -17 -14 -15 5 -16 4 -3 -5 11 -8 18 -7 25 2 6 6 17 13 25 15 11 2
10 -2 -4 -12 -10 -8 -16 -19 -13 -23 3 -5 -4 -15 -15 -22 -18 -11 -20 -11 -15
3 9 22 0 20 -13 -3 -12 -24 5 -23 43 2 35 23 51 22 44 -3 -3 -11 -1 -20 4 -20
5 0 9 -5 9 -11 0 -5 -4 -7 -10 -4 -6 3 -7 -1 -4 -10 5 -13 9 -13 22 -3 13 11
15 10 9 -4 -4 -12 0 -21 13 -28 11 -6 20 -7 20 -3 0 4 8 -1 16 -12 16 -20 16
-20 9 3 -4 13 -2 22 4 22 6 0 11 -10 11 -21 0 -19 2 -20 18 -8 15 12 15 12 5
-1 -19 -24 -19 -26 -3 -45 13 -15 12 -19 -9 -36 -13 -11 -18 -19 -11 -19 8 0
9 -5 4 -13 -5 -7 1 -2 12 11 15 17 24 21 29 12 4 -6 4 -14 1 -17 -3 -4 -6 0
-6 8 -1 8 -8 1 -16 -14 -9 -16 -13 -31 -10 -35 3 -3 6 0 6 7 0 7 5 9 10 6 6
-3 10 -1 10 6 0 7 3 9 6 6 4 -4 1 -14 -7 -23 -13 -16 -12 -16 8 -6 20 11 21
10 18 -10 -3 -13 -9 -24 -15 -26 -5 -2 -10 -8 -10 -14 0 -6 8 -4 18 5 23 21
39 22 22 2 -10 -12 -10 -15 4 -15 9 0 16 -5 16 -11 0 -5 -4 -8 -9 -5 -5 3 -8
-2 -7 -12 0 -9 -4 -16 -11 -15 -7 2 -10 -4 -6 -12 5 -14 7 -13 18 1 11 16 12
16 19 -1 3 -10 1 -25 -6 -33 -8 -10 -9 -13 -2 -9 22 13 23 -22 1 -38 -20 -14
-13 -21 15 -16 4 0 5 -6 2 -14 -4 -8 -10 -15 -15 -15 -5 0 -9 -6 -9 -14 0 -7
-9 -25 -21 -40 -11 -14 -17 -26 -14 -26 4 0 0 -11 -9 -25 -9 -13 -16 -31 -16
-40 0 -13 -22 -15 -150 -15 l-150 0 0 -42 -1 -43 -24 30 c-14 17 -25 35 -25
42 0 9 -48 13 -180 15 -99 2 -180 0 -180 -3 0 -6 -76 -2 -97 6 -7 2 -13 16
-13 30 l0 25 -100 0 -100 0 0 148 c0 190 -5 222 -35 222 -30 0 -35 -27 -36
-195 0 -108 -3 -126 -13 -107 -7 12 -14 21 -17 20 -2 -2 3 3 11 10 13 11 11
12 -14 6 -21 -5 -27 -4 -22 5 4 6 16 11 28 11 17 0 18 2 8 15 -7 8 -18 15 -25
15 -8 0 -14 19 -17 51 -10 100 -98 179 -200 179 -61 0 -104 -18 -145 -61 -38
-41 -49 -67 -58 -141 -8 -67 -29 -69 -45 -4 -30 114 -55 153 -121 186 -75 39
-189 16 -238 -46 -28 -35 -51 -89 -51 -118 0 -18 -2 -17 -15 8 -8 15 -15 35
-15 42 0 8 -7 14 -15 14 -8 0 -15 6 -15 14 0 23 -51 78 -87 92 -74 31 -187 5
-233 -53 -20 -25 -21 -26 -34 -7 -10 13 -11 23 -4 31 7 9 7 18 -2 28 -10 11
-15 13 -20 5 -8 -13 -15 10 -25 73 -6 35 7 58 21 36 4 -8 3 -9 -4 -5 -7 4 -12
5 -12 1 0 -15 29 -73 40 -80 7 -4 5 3 -3 16 -9 13 -15 33 -13 44 4 26 -12 57
-26 49 -5 -4 -14 0 -19 7 -15 23 -10 34 6 13 10 -13 14 -15 15 -5 0 8 3 11 7
8 3 -4 12 1 19 11 9 12 9 19 1 24 -6 3 -12 17 -14 30 l-4 23 16 -23 c9 -12 21
-20 26 -17 5 4 9 1 9 -6 0 -7 3 -9 7 -6 3 4 -3 17 -14 30 -24 26 -29 64 -6 45
10 -8 11 -13 3 -18 -8 -5 -8 -9 2 -12 9 -4 14 2 16 18 1 13 -3 24 -10 24 -6 0
-8 3 -5 6 4 4 13 1 22 -6 17 -15 19 -7 5 21 -7 13 -7 19 0 19 5 0 10 -5 10
-11 0 -5 5 -7 10 -4 8 5 7 12 -2 23 -11 13 -11 15 3 10 9 -4 16 -1 16 8 0 7
-4 11 -9 8 -4 -3 -5 2 -2 10 3 8 0 25 -7 38 -12 23 -12 23 10 4 11 -11 21 -25
21 -32 0 -29 17 -21 19 9 1 18 3 38 3 45 1 8 9 10 22 6 21 -6 21 -6 1 10 -23
17 -13 21 15 6 16 -9 18 -8 13 6 -5 13 -3 15 8 9 12 -8 12 -6 0 8 -11 15 -11
17 2 17 9 0 18 -13 22 -31 5 -23 9 -28 16 -18 5 8 6 23 3 34 l-6 20 17 -20
c16 -20 16 -20 5 2 -6 13 -16 22 -22 20 -6 -1 -17 8 -23 20 -6 12 -22 31 -36
43 l-24 20 26 -11 c15 -6 32 -23 38 -36 7 -14 14 -23 17 -21 8 9 -25 63 -38
63 -8 0 -13 14 -14 33 -1 17 3 32 8 32 4 0 8 -9 8 -19 0 -11 5 -23 10 -26 12
-7 14 28 3 39 -5 4 -9 12 -9 17 -1 5 -3 10 -4 12 -4 4 -6 66 -1 62 2 -3 9 -14
15 -27 6 -12 18 -24 26 -26 12 -4 13 -2 4 9 -17 20 -45 91 -34 84 14 -9 12 9
-2 24 -10 11 -10 12 -1 7 10 -5 11 1 6 26 -3 18 -2 30 2 26 12 -12 34 24 35
55 0 20 4 26 13 21 9 -6 9 -4 1 7 -6 8 -9 23 -7 34 3 11 5 30 6 42 1 12 5 25
9 29 4 4 4 12 -1 18 -14 18 5 57 25 49 14 -5 15 -3 5 15 -9 18 -8 23 8 31 11
7 17 19 16 34 -2 13 1 30 6 38 7 11 9 11 9 1 0 -7 5 -10 12 -6 7 5 5 11 -7 21
-18 12 -18 13 3 13 12 0 22 5 22 11 0 5 -5 7 -11 3 -8 -5 -8 -1 0 13 6 11 7
24 3 28 -4 5 -1 5 6 1 6 -4 12 -13 12 -21 0 -8 4 -16 9 -20 6 -3 6 6 1 24 -11
41 -3 71 18 64 13 -5 14 -3 6 6 -12 13 -7 51 6 51 5 0 10 -6 13 -12 2 -7 8
-10 12 -6 4 4 2 14 -5 23 -9 11 -9 15 -1 15 8 0 10 8 6 20 -4 12 -2 20 5 20 6
0 8 5 4 11 -5 8 -1 8 14 0 17 -9 19 -8 15 9 -6 24 15 80 30 80 6 0 7 3 4 7 -4
3 -1 13 6 21 11 13 9 14 -10 2 -12 -8 -20 -17 -18 -21 3 -3 -3 -15 -11 -25
-15 -18 -15 -18 -11 4 3 12 1 20 -4 16 -5 -3 -9 -11 -9 -19 0 -8 -5 -17 -11
-20 -5 -4 -4 8 4 27 12 28 12 36 1 46 -7 6 -11 25 -9 41 3 25 0 29 -16 26 -12
-2 -17 0 -13 6 3 6 16 9 28 7 12 -3 28 2 35 9 11 12 15 12 25 -3 10 -13 15
-14 21 -4 6 9 4 11 -5 5 -10 -6 -12 -4 -6 10 4 11 0 25 -9 35 -11 12 -13 20
-6 25 6 3 11 11 11 16 0 6 -5 7 -11 3 -7 -4 -7 2 1 17 17 32 23 37 18 17 -1
-9 2 -16 7 -15 6 1 9 14 9 29 -1 15 2 25 7 22 4 -2 5 -12 2 -21 -4 -10 -2 -14
4 -10 6 4 14 1 17 -5 2 -7 3 -2 2 12 -2 15 5 32 16 42 12 10 17 22 12 29 -4 8
-3 9 5 5 6 -4 24 2 40 13 16 12 32 21 36 21 4 0 21 10 38 22 17 12 36 23 42
25 203 43 320 52 565 47 113 -2 216 -6 230 -8z m2830 -2 c93 -7 135 -12 180
-20 19 -4 46 -8 60 -9 39 -3 109 -25 115 -35 3 -6 15 -10 26 -10 11 0 18 -4
15 -9 -3 -5 1 -12 10 -15 8 -3 12 -10 9 -16 -3 -5 -2 -10 4 -10 5 0 12 6 14
13 4 7 8 3 13 -11 6 -20 8 -21 19 -6 11 15 12 15 18 -5 3 -11 1 -19 -4 -15 -5
3 -6 -2 -3 -11 5 -13 9 -13 23 -3 9 7 13 8 9 4 -4 -5 -2 -16 5 -24 9 -13 9
-14 0 -8 -8 4 -13 1 -13 -8 0 -9 6 -13 13 -10 9 3 13 -3 12 -18 -2 -13 6 -30
17 -39 13 -10 20 -29 21 -56 1 -23 5 -39 10 -36 13 8 7 -15 -8 -31 -21 -21
-19 -29 6 -16 14 8 19 19 17 37 -2 16 3 28 11 31 11 4 13 -2 8 -27 -5 -24 -4
-30 6 -25 8 5 7 2 -2 -9 -7 -9 -20 -17 -27 -17 -8 0 -13 -3 -13 -7 3 -21 -2
-34 -11 -28 -6 4 -8 10 -6 14 3 4 -1 8 -7 8 -7 0 -14 -10 -15 -21 -1 -17 1
-18 8 -6 7 11 10 11 10 2 0 -7 -7 -15 -15 -18 -18 -7 -20 -26 -2 -23 29 4 37
-2 37 -27 0 -23 2 -25 15 -14 13 11 14 10 10 -3 -4 -8 0 -28 9 -45 12 -23 12
-32 3 -43 -10 -11 -9 -11 5 -1 9 8 19 9 22 4 3 -6 -1 -13 -9 -16 -11 -4 -15
-17 -13 -46 1 -22 3 -40 3 -40 1 0 10 10 21 22 15 19 16 20 2 9 -22 -16 -24 1
-3 19 8 7 15 19 15 27 0 12 3 12 16 -2 9 -8 13 -22 10 -30 -3 -8 -1 -15 5 -15
6 0 7 -5 4 -10 -9 -15 5 -71 16 -64 8 5 13 -22 10 -56 -2 -13 -1 -13 8 0 8 12
11 12 11 1 0 -8 6 -11 18 -7 14 5 14 4 -2 -9 -11 -8 -28 -15 -39 -15 -12 0
-17 -6 -15 -19 2 -10 -6 -29 -17 -42 -16 -19 -17 -21 -2 -10 17 13 18 12 12
-11 -4 -15 -2 -29 4 -32 7 -4 11 1 11 13 0 11 5 23 10 26 6 3 10 12 9 18 0 9
-2 8 -6 -1 -2 -6 -8 -10 -13 -7 -9 6 11 55 23 55 5 0 5 -5 1 -11 -4 -8 0 -8
15 0 25 14 27 4 5 -27 -9 -13 -13 -26 -10 -29 3 -3 15 14 26 38 17 35 20 38
15 14 -3 -16 -8 -43 -10 -58 -3 -16 -7 -32 -9 -36 -3 -4 -1 -13 4 -21 5 -8 5
-21 -1 -31 -7 -13 -5 -18 8 -21 9 -2 17 -13 18 -25 1 -18 -1 -20 -12 -11 -11
9 -12 7 -6 -8 6 -16 4 -17 -9 -6 -13 10 -15 8 -14 -17 1 -25 3 -28 16 -17 23
20 44 31 37 19 -3 -5 -8 -20 -11 -34 -2 -13 -8 -33 -12 -43 -6 -16 -4 -18 10
-13 11 4 15 3 11 -4 -4 -6 -13 -8 -21 -5 -16 6 -19 -10 -4 -19 6 -4 8 -11 5
-16 -3 -5 1 -6 9 -3 17 7 22 -11 7 -21 -9 -5 -25 12 -59 61 -8 12 -11 13 -9 4
3 -8 -2 -23 -11 -32 -10 -12 -11 -18 -4 -18 7 0 12 5 12 11 0 5 5 7 11 4 7 -5
4 -14 -7 -26 -9 -11 -12 -19 -6 -19 6 0 9 -6 6 -13 -3 -8 4 -13 17 -14 16 -2
18 1 9 12 -8 9 -8 15 0 20 5 3 14 -4 19 -17 8 -20 10 -21 16 -5 11 26 34 22
27 -5 -3 -13 -7 -17 -10 -10 -3 10 -11 7 -28 -9 -13 -12 -21 -25 -19 -30 3 -4
-11 -17 -30 -29 -35 -21 -47 -37 -22 -27 7 3 13 -3 14 -12 1 -15 -47 -40 -84
-43 -7 -1 -11 -4 -8 -6 3 -3 -2 -16 -11 -30 -10 -16 -12 -22 -3 -16 7 4 24 8
37 9 20 1 21 -1 8 -11 -9 -6 -16 -16 -16 -23 0 -6 -5 -11 -11 -11 -5 0 -7 -5
-3 -12 4 -7 3 -8 -4 -4 -7 4 -14 -3 -18 -19 -3 -14 -10 -25 -15 -25 -6 0 -5 9
1 20 6 11 8 20 4 20 -4 0 1 9 11 20 10 11 14 20 9 20 -14 0 -36 -16 -35 -26 1
-26 -14 -55 -35 -69 -13 -8 -24 -23 -24 -33 0 -15 -2 -15 -10 -2 -9 14 -11 10
-10 -15 1 -11 -29 -35 -44 -35 -22 0 -20 -12 5 -33 13 -12 19 -13 18 -5 -3 27
2 37 20 43 11 3 23 15 26 26 4 10 11 19 17 19 6 0 6 -6 -2 -15 -7 -8 -9 -15
-5 -15 4 0 -4 -11 -19 -25 -16 -14 -25 -32 -23 -40 7 -16 -13 -25 -61 -26
l-37 -1 35 -9 c19 -4 40 -6 47 -4 21 7 21 -9 0 -29 -20 -19 -20 -19 -14 0 6
17 6 18 -6 2 -7 -9 -19 -18 -27 -20 -7 -2 -21 -11 -31 -20 -11 -10 -26 -14
-40 -11 -15 4 -20 3 -15 -6 4 -6 11 -9 16 -6 4 3 10 -4 13 -15 3 -11 0 -23 -5
-27 -7 -4 -8 -1 -3 7 5 8 4 11 -3 6 -6 -4 -9 -13 -5 -21 3 -9 -1 -15 -11 -15
-10 0 -13 5 -9 16 5 14 3 13 -15 -2 -25 -21 -28 -28 -9 -21 8 3 20 1 28 -3 9
-6 4 -9 -16 -8 -48 1 -55 -1 -55 -17 0 -8 -6 -15 -12 -16 -7 -1 -2 -5 12 -9
l25 -8 -28 -1 c-24 -1 -36 -15 -88 -94 -32 -50 -63 -92 -68 -92 -5 0 -36 42
-70 93 -54 82 -64 92 -91 92 -16 0 -30 -3 -30 -6 0 -4 26 -48 57 -98 32 -50
56 -99 55 -110 -2 -10 2 -22 9 -27 11 -6 10 -13 -1 -33 -7 -14 -19 -26 -26
-26 -13 0 -44 42 -44 60 0 6 -15 28 -34 48 -19 20 -50 58 -70 83 -19 26 -42
49 -51 53 -22 8 -30 -19 -16 -50 6 -14 7 -23 3 -20 -5 3 -19 32 -33 66 -22 56
-26 60 -55 60 l-32 0 -63 -160 c-40 -104 -65 -156 -70 -148 -7 11 -9 11 -9 0
0 -7 -4 -11 -9 -8 -5 3 -12 -1 -15 -10 -3 -8 -11 -12 -16 -9 -6 4 -19 -4 -30
-17 -19 -22 -19 -22 0 17 15 29 20 59 20 115 0 88 -21 142 -69 182 -41 35 -96
42 -245 34 -97 -5 -123 -9 -133 -23 -12 -15 -13 -15 -13 0 0 9 -9 21 -20 27
-11 6 -18 15 -15 20 3 5 -4 14 -15 20 -11 6 -20 20 -20 30 0 11 -7 20 -16 20
-8 0 -12 5 -9 10 3 6 1 10 -5 10 -6 0 -15 11 -20 25 -5 14 -15 25 -22 25 -9 0
-8 3 2 10 12 7 12 10 1 10 -8 0 -11 6 -7 16 3 8 2 12 -4 9 -6 -3 -10 1 -10 10
0 12 4 14 19 6 20 -11 34 -48 21 -53 -5 -2 0 -14 11 -27 11 -13 22 -21 26 -17
4 3 2 11 -4 17 -6 6 -9 18 -6 25 3 8 0 14 -6 14 -6 0 -11 11 -11 24 0 14 -10
32 -22 40 -12 9 -19 16 -14 16 5 0 3 7 -4 15 -7 8 -9 22 -6 31 6 16 8 15 22
-2 15 -18 15 -18 10 -1 -3 10 -6 26 -6 35 0 15 -2 15 -11 2 -9 -12 -10 -12 -5
4 4 12 0 23 -11 32 -17 12 -16 13 4 7 14 -3 24 -16 28 -33 3 -16 13 -34 21
-41 18 -15 18 2 -1 27 -8 10 -15 26 -15 35 0 17 -26 34 -47 30 -6 -1 -14 3
-18 9 -4 6 1 7 11 3 13 -5 16 -2 12 9 -5 13 -3 14 17 4 13 -6 22 -13 20 -17
-2 -3 3 -6 12 -6 16 0 -11 27 -69 69 l-23 17 23 -6 c12 -3 22 -10 22 -17 0 -6
4 -4 9 4 7 10 4 18 -10 28 -12 8 -18 20 -15 29 3 8 3 20 -1 26 -4 7 -9 21 -10
31 -5 28 -13 33 -23 16 -6 -8 -10 -11 -10 -7 0 17 23 53 49 74 14 12 20 22 14
23 -7 0 -13 7 -13 16 0 14 3 14 15 4 16 -14 20 -3 6 19 -5 7 -13 11 -18 8 -5
-3 -9 3 -9 13 0 12 4 16 11 10 8 -6 10 2 7 25 -3 21 -8 32 -15 28 -6 -4 -8 0
-4 9 3 9 0 21 -6 27 -9 9 -8 11 5 6 9 -4 20 -19 23 -35 3 -16 13 -34 21 -41
11 -9 11 -5 -2 26 -8 21 -13 46 -11 57 3 10 1 16 -4 12 -5 -3 -9 0 -9 5 0 6
-5 10 -12 8 -6 -1 -14 6 -16 16 -2 9 1 17 7 17 6 0 8 -6 5 -13 -3 -8 2 -14 11
-14 11 0 15 6 12 19 -3 10 -1 16 4 12 9 -5 13 9 9 36 -1 11 1 12 10 4 7 -8 8
-19 1 -37 -6 -15 -7 -27 -2 -27 5 0 11 10 14 23 2 12 8 29 11 38 4 10 0 23 -9
33 -10 10 -12 16 -4 16 8 0 8 5 -2 17 -12 14 -12 16 0 8 11 -6 13 -4 7 10 -5
14 -4 16 7 6 12 -9 13 -7 9 14 -2 14 -9 25 -15 25 -6 0 -2 6 9 14 10 8 16 18
11 22 -4 4 -1 17 7 28 7 12 12 35 11 51 -3 28 -2 29 7 8 11 -24 31 -33 23 -10
-7 19 13 45 23 30 5 -7 8 5 7 30 0 24 -6 47 -15 55 -13 11 -13 12 0 11 37 -4
48 1 43 20 -3 10 0 22 6 25 6 4 11 16 11 26 0 11 9 24 20 30 11 6 20 20 20 31
0 12 4 17 11 13 8 -4 9 1 4 16 -5 15 -4 20 4 16 7 -5 11 1 11 14 0 19 1 20 16
6 22 -23 24 -20 13 16 -5 18 -9 34 -9 36 0 2 -5 0 -12 -4 -8 -5 -9 -2 -5 10 6
14 4 15 -14 5 -17 -9 -20 -8 -13 2 4 7 7 32 6 54 -2 29 0 36 7 25 5 -8 7 -18
5 -22 -3 -4 2 -5 11 -1 13 5 14 7 3 14 -7 5 -10 9 -6 9 4 0 3 12 -2 28 -9 25
-9 26 5 8 8 -11 15 -24 15 -30 0 -5 3 -7 6 -4 3 4 1 16 -6 27 -7 14 -8 27 -1
38 6 12 6 24 -1 38 -10 18 -10 19 6 6 12 -10 15 -24 12 -50 -3 -20 -3 -27 0
-17 5 15 8 16 16 5 8 -12 9 -11 5 1 -2 8 0 24 6 35 5 11 6 17 2 13 -9 -9 -34
21 -35 40 0 16 25 43 33 35 3 -3 9 6 12 20 4 15 19 30 37 38 17 7 39 22 49 33
11 11 19 16 19 12 0 -5 7 -2 16 5 9 7 28 15 42 17 15 2 29 7 32 11 3 5 25 12
50 16 25 4 65 12 90 19 25 7 76 14 115 15 38 2 72 4 74 7 4 4 144 -2 271 -12z
m-3890 -299 c0 -5 -5 -3 -10 5 -5 8 -10 20 -10 25 0 6 5 3 10 -5 5 -8 10 -19
10 -25z m1559 -35 c0 -8 -6 -4 -13 10 -8 14 -12 29 -8 34 6 10 20 -20 21 -44z
m1445 14 c3 -8 2 -12 -4 -9 -6 3 -10 10 -10 16 0 14 7 11 14 -7z m-4481 -26
c-4 -7 -8 -16 -8 -20 0 -5 -3 -8 -7 -8 -5 0 -7 3 -7 8 4 19 12 32 21 32 5 0 6
-6 1 -12z m1427 -94 c0 -8 -5 -12 -10 -9 -6 4 -8 11 -5 16 9 14 15 11 15 -7z
m-3003 -36 c-3 -8 -6 -5 -6 6 -1 11 2 17 5 13 3 -3 4 -12 1 -19z m6060 -20
c-3 -7 -5 -2 -5 12 0 14 2 19 5 13 2 -7 2 -19 0 -25z m-6057 -27 c6 -11 6 -22
1 -25 -5 -3 -11 5 -13 19 -6 30 -2 32 12 6z m1591 -4 c-10 -9 -11 -8 -5 6 3
10 9 15 12 12 3 -3 0 -11 -7 -18z m5982 -51 c4 4 7 2 7 -4 0 -23 -17 -20 -29
4 -15 33 -14 45 2 16 7 -12 16 -19 20 -16z m-7549 9 c-4 -8 -8 -15 -10 -15 -2
0 -4 7 -4 15 0 8 4 15 10 15 5 0 7 -7 4 -15z m-55 -95 c0 -10 -3 -8 -9 5 -12
27 -12 43 0 25 5 -8 9 -22 9 -30z m1667 3 c-10 -10 -19 5 -10 18 6 11 8 11 12
0 2 -7 1 -15 -2 -18z m-1646 -33 c0 -5 -5 -10 -11 -10 -5 0 -7 5 -4 10 3 6 8
10 11 10 2 0 4 -4 4 -10z m4670 -4 c0 -11 -19 -15 -25 -6 -3 5 1 10 9 10 9 0
16 -2 16 -4z m1204 -202 c3 -8 2 -12 -4 -9 -6 3 -10 10 -10 16 0 14 7 11 14
-7z m-5995 -141 c-5 -15 -8 -32 -5 -39 3 -8 1 -16 -4 -19 -10 -6 -15 10 -10
30 7 30 9 41 9 53 1 7 5 11 11 7 6 -4 6 -15 -1 -32z m1924 3 c4 -10 1 -13 -8
-9 -8 3 -12 9 -9 14 7 12 11 11 17 -5z m4065 -21 c-3 -3 -9 2 -12 12 -6 14 -5
15 5 6 7 -7 10 -15 7 -18z m-6050 -70 c-3 -3 -9 2 -12 12 -6 14 -5 15 5 6 7
-7 10 -15 7 -18z m40 -16 c-2 -7 -10 -4 -18 7 -9 11 -10 15 -2 10 7 -4 12 -2
13 6 0 10 2 10 6 1 2 -7 3 -18 1 -24z m7 -67 c-3 -8 -5 -21 -5 -30 -1 -15 -3
-14 -16 3 -9 13 -12 30 -8 49 4 17 2 26 -3 23 -5 -4 -10 1 -10 10 0 11 8 7 24
-13 13 -16 21 -35 18 -42z m2847 26 c-9 -9 -12 -7 -12 12 0 19 3 21 12 12 9
-9 9 -15 0 -24z m-879 -13 c-3 -9 -8 -14 -10 -11 -3 3 -2 9 2 15 9 16 15 13 8
-4z m-29 -29 c-7 -18 14 -30 29 -17 10 7 13 4 14 -12 1 -12 -1 -17 -5 -10 -10
16 -50 -18 -44 -36 4 -12 3 -12 -10 -1 -18 17 -19 43 -2 36 8 -3 16 0 20 6 4
6 3 8 -4 4 -12 -7 -26 29 -17 44 9 15 25 2 19 -14z m3076 0 c0 -2 -7 -6 -15
-10 -8 -3 -15 -1 -15 4 0 6 7 10 15 10 8 0 15 -2 15 -4z m914 -88 c-3 -5 -1
-14 5 -21 7 -9 5 -13 -8 -13 -11 0 -17 8 -17 21 0 12 6 22 13 22 6 0 10 -4 7
-9z m2031 2 c-3 -5 -11 -10 -16 -10 -6 0 -7 5 -4 10 3 6 11 10 16 10 6 0 7 -4
4 -10z m40 -22 c-22 -62 -34 -83 -34 -67 -1 15 36 99 43 99 2 0 -2 -15 -9 -32z
m-6010 -38 c-3 -5 -1 -10 6 -10 7 0 10 -3 6 -6 -9 -9 -28 6 -22 17 4 5 8 9 11
9 3 0 2 -4 -1 -10z m2969 -47 c-2 -40 -3 -43 -12 -43 -7 0 -8 21 -3 68 2 26
17 3 15 -25z m-2983 -20 c-12 -20 -14 -14 -5 12 4 9 9 14 11 11 3 -2 0 -13 -6
-23z m29 -7 c0 -2 -8 -10 -17 -17 -16 -13 -17 -12 -4 4 13 16 21 21 21 13z
m860 -27 c0 -6 -4 -7 -10 -4 -5 3 -10 11 -10 16 0 6 5 7 10 4 6 -3 10 -11 10
-16z m3066 -6 c-7 -7 -26 7 -26 19 0 6 6 6 15 -2 9 -7 13 -15 11 -17z m1864
16 c0 -5 -4 -7 -10 -4 -5 3 -10 -2 -11 -12 0 -11 -3 -13 -6 -5 -4 10 -10 10
-29 -3 -13 -8 -24 -11 -24 -6 0 11 47 38 68 40 6 1 12 -4 12 -10z m-5803 -41
c-3 -8 -6 -5 -6 6 -1 11 2 17 5 13 3 -3 4 -12 1 -19z m907 6 c3 -8 2 -12 -4
-9 -6 3 -10 10 -10 16 0 14 7 11 14 -7z m2973 -16 c-3 -8 -6 -5 -6 6 -1 11 2
17 5 13 3 -3 4 -12 1 -19z m53 7 c0 -8 -2 -15 -4 -15 -2 0 -6 7 -10 15 -3 8
-1 15 4 15 6 0 10 -7 10 -15z m-5946 -51 c3 -8 2 -12 -4 -9 -6 3 -10 10 -10
16 0 14 7 11 14 -7z m2858 -24 c-2 -16 -8 -27 -13 -24 -5 3 -8 8 -6 12 2 4 7
15 10 25 10 26 14 20 9 -13z m-2788 -20 c18 -7 26 -6 26 1 0 8 5 7 15 -1 8 -7
15 -20 14 -29 0 -10 -2 -11 -6 -3 -2 6 -12 12 -21 12 -9 1 -28 7 -42 15 -29
17 -22 19 14 5z m-54 -33 c0 -5 -4 -5 -10 -2 -5 3 -10 14 -10 23 0 15 2 15 10
2 5 -8 10 -19 10 -23z m44 -8 c11 -23 13 -36 5 -48 -9 -13 -10 -12 -5 7 3 17
1 22 -9 18 -8 -3 -17 0 -21 6 -4 7 -3 8 4 4 7 -4 12 -2 12 3 0 6 -4 11 -10 11
-5 0 -7 7 -4 15 8 21 10 19 28 -16z m1980 -3 c-10 -8 -21 -12 -24 -9 -3 2 4
11 14 19 11 7 22 12 25 9 2 -3 -4 -12 -15 -19z m2964 -26 c1 -16 -2 -30 -8
-30 -5 0 -10 5 -10 11 0 5 -4 7 -10 4 -13 -8 0 28 14 37 6 4 11 8 11 8 1 0 2
-13 3 -30z m899 -12 c-3 -8 -6 -5 -6 6 -1 11 2 17 5 13 3 -3 4 -12 1 -19z
m-3854 -3 c4 -8 3 -16 -1 -19 -4 -3 -9 4 -9 15 -2 23 3 25 10 4z m3922 6 c3
-5 1 -12 -5 -16 -5 -3 -10 1 -10 9 0 18 6 21 15 7z m-24 -28 c13 -16 12 -17
-3 -4 -17 13 -22 21 -14 21 2 0 10 -8 17 -17z m-86 -33 c3 -5 1 -10 -4 -10 -6
0 -11 5 -11 10 0 6 2 10 4 10 3 0 8 -4 11 -10z m45 -30 c0 -5 -2 -10 -4 -10
-3 0 -8 5 -11 10 -3 6 -1 10 4 10 6 0 11 -4 11 -10z m60 -12 c0 -6 -6 -5 -15
2 -8 7 -15 14 -15 16 0 2 7 1 15 -2 8 -4 15 -11 15 -16z m-5915 2 c3 -5 2 -10
-4 -10 -5 0 -13 5 -16 10 -3 6 -2 10 4 10 5 0 13 -4 16 -10z m5035 -21 c0 8 2
12 5 9 3 -3 3 -13 -1 -22 -7 -19 -24 -11 -24 12 0 15 2 15 10 2 8 -12 10 -12
10 -1z m2541 -12 c-10 -9 -11 -8 -5 6 3 10 9 15 12 12 3 -3 0 -11 -7 -18z
m-4934 -19 c-3 -8 -6 -5 -6 6 -1 11 2 17 5 13 3 -3 4 -12 1 -19z m2438 2 c3
-6 -1 -13 -10 -16 -13 -6 -14 -8 -3 -15 9 -6 9 -9 1 -9 -20 0 -26 20 -8 26 13
6 14 8 3 15 -9 6 -9 9 -1 9 6 0 15 -5 18 -10z m35 -20 c-24 -15 -36 -11 -14 4
10 8 21 12 24 10 2 -3 -2 -9 -10 -14z m-5135 0 c3 -5 1 -10 -4 -10 -6 0 -11 5
-11 10 0 6 2 10 4 10 3 0 8 -4 11 -10z m2620 -11 c3 -4 0 -11 -6 -15 -8 -5 -9
-3 -4 6 6 10 2 12 -18 8 -17 -3 -24 -1 -20 7 4 13 39 9 48 -6z m35 -32 c0 -5
-4 -5 -10 -2 -5 3 -10 14 -10 23 0 15 2 15 10 2 5 -8 10 -19 10 -23z m5010 13
c-8 -5 -19 -10 -25 -10 -5 0 -3 5 5 10 8 5 20 10 25 10 6 0 3 -5 -5 -10z m-59
-73 c-10 -9 -11 -8 -5 6 3 10 9 15 12 12 3 -3 0 -11 -7 -18z m-7591 -7 c0 -5
-2 -10 -4 -10 -3 0 -8 5 -11 10 -3 6 -1 10 4 10 6 0 11 -4 11 -10z m7384 -32
c-3 -4 -11 -5 -19 -1 -21 7 -19 12 4 10 11 0 18 -5 15 -9z m19 -35 c-7 -2 -21
-2 -30 0 -10 3 -4 5 12 5 17 0 24 -2 18 -5z m-34 -26 c-2 -1 -13 -9 -24 -17
-19 -14 -19 -14 -6 3 7 9 18 17 24 17 6 0 8 -1 6 -3z m191 -61 c0 -2 -8 -10
-17 -17 -16 -13 -17 -12 -4 4 13 16 21 21 21 13z m51 -16 c-26 -22 -37 -25
-46 -10 -3 6 3 10 14 10 11 0 23 5 26 10 3 6 12 10 18 10 7 -1 1 -10 -12 -20z
m-2347 -34 c-3 -8 -12 -17 -20 -20 -9 -3 -12 -11 -8 -18 4 -7 3 -10 -1 -5 -14
12 -13 46 1 40 6 -2 15 0 19 6 9 16 15 13 9 -3z m2437 5 c-8 -5 -20 -7 -28 -4
-7 3 -13 0 -13 -6 0 -6 12 -11 28 -11 l27 0 -25 -20 c-14 -11 -20 -20 -13 -20
6 0 14 4 18 9 3 6 13 10 23 10 9 -1 27 2 40 6 25 8 31 -12 10 -34 -13 -14 -12
-14 53 5 16 5 20 3 13 -7 -5 -9 1 -8 19 4 25 16 26 16 20 0 -6 -15 -4 -16 9
-6 12 11 17 9 28 -12 9 -17 17 -22 25 -15 7 5 15 7 18 3 4 -3 -1 -12 -11 -20
-12 -10 -13 -13 -3 -11 8 3 31 -12 51 -32 39 -39 60 -89 38 -91 -23 -2 36 -17
69 -18 17 -1 35 -6 38 -12 5 -7 -48 -9 -172 -7 l-178 3 -3 -87 -3 -88 -104 0
c-87 0 -105 3 -105 15 0 10 10 15 30 15 17 0 30 5 30 11 0 7 -12 10 -30 7
l-30 -5 0 67 0 66 -72 1 c-40 1 -84 6 -98 11 -25 11 -25 11 -2 11 13 1 20 5
17 11 -3 6 2 11 12 11 17 1 17 2 1 6 -10 2 -18 13 -18 24 0 21 40 89 53 89 10
0 4 -23 -8 -33 -6 -5 -4 -7 5 -4 8 2 14 10 13 16 -2 6 4 11 12 11 8 0 15 5 15
11 0 8 5 7 16 -1 19 -16 38 1 48 43 5 22 3 27 -11 27 -10 0 -24 -9 -31 -20 -7
-12 -8 -20 -2 -20 5 0 10 -4 10 -9 0 -5 -9 -7 -20 -4 -11 3 -20 0 -20 -6 0 -6
-5 -11 -12 -11 -6 0 -4 8 6 19 10 10 14 21 9 23 -4 3 -3 4 4 2 18 -4 24 8 12
23 -9 10 -6 13 12 14 13 0 33 3 44 5 11 3 28 5 38 5 10 0 22 8 28 18 7 10 26
18 48 19 25 2 32 -1 22 -7z m-2394 -23 c-3 -8 -6 -5 -6 6 -1 11 2 17 5 13 3
-3 4 -12 1 -19z m-2202 -18 c3 -5 1 -10 -4 -10 -6 0 -11 5 -11 10 0 6 2 10 4
10 3 0 8 -4 11 -10z m4449 -35 c-6 -16 -24 -21 -24 -7 0 11 11 22 21 22 5 0 6
-7 3 -15z m370 -1 c3 -8 2 -12 -4 -9 -6 3 -10 10 -10 16 0 14 7 11 14 -7z
m-2672 -36 c-7 -7 -12 -8 -12 -2 0 14 12 26 19 19 2 -3 -1 -11 -7 -17z m-2152
-18 c0 -12 -27 -12 -55 0 -16 7 -13 9 18 9 20 1 37 -3 37 -9z m-3300 -101 c0
-5 15 -16 32 -25 31 -16 31 -17 12 -25 -12 -4 -25 -20 -28 -36 -20 -82 -27
-101 -39 -100 -47 1 -50 -2 -44 -45 4 -24 9 -58 13 -77 5 -26 4 -33 -6 -29
-11 3 -34 72 -91 277 -2 8 3 16 11 17 8 2 32 5 53 9 23 4 37 11 37 20 0 8 7
15 16 15 8 0 12 4 9 10 -3 6 1 7 9 4 9 -3 16 -10 16 -15z m6708 -21 c-2 -6 8
-15 22 -19 23 -6 23 -7 3 -8 -37 -2 -55 9 -42 25 14 17 20 18 17 2z m-6932
-35 c-5 -17 -76 -257 -76 -258 0 0 -9 -1 -20 -2 -11 -1 -20 0 -20 1 0 6 -51
231 -56 248 -6 19 17 24 119 26 51 2 58 0 53 -15z m3989 7 c-3 -5 -10 -10 -16
-10 -5 0 -9 5 -9 10 0 6 7 10 16 10 8 0 12 -4 9 -10z m-3112 -7 c-7 -2 -19 -2
-25 0 -7 3 -2 5 12 5 14 0 19 -2 13 -5z m-442 -71 c1 -34 -1 -65 -4 -69 -4 -3
-7 27 -7 67 0 88 8 90 11 2z m4055 -87 c14 -13 8 -15 -48 -15 -59 0 -61 1 -38
14 34 19 68 19 86 1z"/>
<path d="M1353 3885 c-3 -9 -3 -18 -1 -21 3 -3 8 4 11 16 6 23 -1 27 -10 5z"/>
<path d="M1327 3749 c4 -13 8 -18 11 -10 2 7 -1 18 -6 23 -8 8 -9 4 -5 -13z"/>
<path d="M1261 3634 c0 -11 3 -14 6 -6 3 7 2 16 -1 19 -3 4 -6 -2 -5 -13z"/>
<path d="M1150 3141 c0 -5 7 -11 14 -14 10 -4 13 -1 9 9 -6 15 -23 19 -23 5z"/>
<path d="M3000 3124 c0 -5 11 -25 25 -44 13 -18 22 -38 18 -43 -3 -6 -1 -7 5
-3 19 11 14 -9 -9 -38 -20 -26 -47 -37 -33 -13 5 8 2 8 -9 -2 -19 -15 -23 -26
-5 -15 8 5 9 2 3 -12 -27 -64 -52 -146 -40 -130 8 11 15 26 15 33 0 31 41 102
75 127 34 26 35 28 20 56 -17 32 -19 44 -7 36 4 -2 14 0 22 5 11 7 6 8 -15 4
-25 -4 -34 0 -48 23 -9 15 -17 22 -17 16z"/>
<path d="M1202 3078 c5 -18 15 -54 20 -80 6 -26 14 -45 19 -43 4 3 3 18 -2 34
-6 15 -9 32 -7 37 1 5 -4 20 -11 34 l-13 25 21 -23 c15 -15 20 -29 16 -42 -5
-14 -2 -20 10 -20 12 0 15 6 9 23 -3 12 -12 29 -19 37 -6 8 -15 23 -18 33 -4
9 -13 17 -21 17 -12 0 -13 -6 -4 -32z"/>
<path d="M1195 3010 c3 -5 8 -10 11 -10 2 0 4 5 4 10 0 6 -5 10 -11 10 -5 0
-7 -4 -4 -10z"/>
<path d="M1180 2970 c0 -5 5 -10 11 -10 5 0 7 5 4 10 -3 6 -8 10 -11 10 -2 0
-4 -4 -4 -10z"/>
<path d="M1185 2940 c3 -5 11 -10 16 -10 6 0 7 5 4 10 -3 6 -11 10 -16 10 -6
0 -7 -4 -4 -10z"/>
<path d="M3046 2872 c-3 -6 0 -13 6 -16 10 -3 8 -9 -4 -19 -10 -8 -18 -20 -18
-27 0 -9 6 -7 20 5 19 17 26 12 21 -17 0 -5 4 -8 9 -8 11 0 12 3 15 43 2 24
-2 29 -21 26 -4 0 -10 5 -14 11 -5 8 -10 9 -14 2z m44 -47 c0 -5 -5 -3 -10 5
-5 8 -10 20 -10 25 0 6 5 3 10 -5 5 -8 10 -19 10 -25z"/>
<path d="M1290 2840 c20 -13 33 -13 25 0 -3 6 -14 10 -23 10 -15 0 -15 -2 -2
-10z"/>
<path d="M3100 2760 c-9 -6 -10 -10 -3 -10 6 0 15 5 18 10 8 12 4 12 -15 0z"/>
<path d="M3002 2668 c-16 -16 -15 -29 1 -22 8 3 14 11 14 19 0 18 0 18 -15 3z"/>
<path d="M1225 2640 c3 -5 8 -10 11 -10 2 0 4 5 4 10 0 6 -5 10 -11 10 -5 0
-7 -4 -4 -10z"/>
<path d="M3100 2569 c0 -5 5 -7 10 -4 6 3 10 8 10 11 0 2 -4 4 -10 4 -5 0 -10
-5 -10 -11z"/>
<path d="M5730 4276 c0 -2 7 -7 16 -10 8 -3 12 -2 9 4 -6 10 -25 14 -25 6z"/>
<path d="M4371 4174 c0 -11 3 -14 6 -6 3 7 2 16 -1 19 -3 4 -6 -2 -5 -13z"/>
<path d="M5810 4060 c-6 -11 -8 -20 -6 -20 3 0 10 9 16 20 6 11 8 20 6 20 -3
0 -10 -9 -16 -20z"/>
<path d="M4306 4037 c3 -10 9 -15 12 -12 3 3 0 11 -7 18 -10 9 -11 8 -5 -6z"/>
<path d="M5825 3950 c-3 -5 -3 -15 0 -21 4 -5 -1 -20 -12 -31 -13 -16 -7 -14
20 6 29 23 35 31 26 42 -14 17 -25 18 -34 4z"/>
<path d="M5986 3592 c-2 -4 0 -14 6 -22 8 -12 9 -12 5 2 -3 9 -1 19 6 22 9 3
9 5 0 5 -6 1 -14 -3 -17 -7z"/>
<path d="M4116 3381 c-3 -5 2 -15 12 -22 15 -12 16 -12 5 2 -7 9 -10 19 -6 22
3 4 4 7 0 7 -3 0 -8 -4 -11 -9z"/>
<path d="M6075 3340 c-3 -5 -1 -10 4 -10 6 0 11 5 11 10 0 6 -2 10 -4 10 -3 0
-8 -4 -11 -10z"/>
<path d="M6007 3321 c-4 -17 -3 -21 5 -13 5 5 8 16 6 23 -3 8 -7 3 -11 -10z"/>
<path d="M4084 2993 c2 -10 6 -17 10 -16 15 3 16 11 2 22 -12 10 -14 9 -12 -6z"/>
<path d="M4126 2977 c3 -10 9 -15 12 -12 3 3 0 11 -7 18 -10 9 -11 8 -5 -6z"/>
<path d="M5926 2933 c-6 -14 -5 -15 5 -6 7 7 10 15 7 18 -3 3 -9 -2 -12 -12z"/>
<path d="M6103 2931 c-9 -12 -23 -21 -30 -21 -7 0 -13 -7 -13 -16 0 -12 6 -15
23 -10 12 3 28 6 35 6 6 0 12 4 12 9 0 5 -10 7 -22 4 -23 -5 -22 -4 2 15 14
12 22 24 18 27 -4 4 -15 -3 -25 -14z"/>
<path d="M5881 2774 c0 -11 3 -14 6 -6 3 7 2 16 -1 19 -3 4 -6 -2 -5 -13z"/>
<path d="M5920 2715 c-7 -9 -11 -17 -9 -20 3 -2 10 5 17 15 14 24 10 26 -8 5z"/>
<path d="M5869 2673 c-13 -16 -12 -17 4 -4 9 7 17 15 17 17 0 8 -8 3 -21 -13z"/>
<path d="M5882 2658 c-15 -15 -16 -31 0 -26 6 2 12 12 14 21 3 20 2 21 -14 5z"/>
<path d="M6146 2621 c-11 -12 -14 -21 -7 -26 6 -3 12 -4 12 -1 1 3 2 9 3 14 1
4 5 13 9 20 12 18 2 15 -17 -7z"/>
<path d="M6080 2579 c0 -5 5 -7 10 -4 6 3 10 8 10 11 0 2 -4 4 -10 4 -5 0 -10
-5 -10 -11z"/>
<path d="M6140 2570 c0 -5 6 -10 14 -10 8 0 17 -6 19 -12 4 -10 6 -10 6 -1 1
7 -8 17 -19 23 -14 7 -20 7 -20 0z"/>
<path d="M6190 2546 c0 -9 5 -16 10 -16 6 0 10 4 10 9 0 6 -4 13 -10 16 -5 3
-10 -1 -10 -9z"/>
<path d="M6146 2533 c-6 -14 -5 -15 5 -6 7 7 10 15 7 18 -3 3 -9 -2 -12 -12z"/>
<path d="M6226 2529 c2 -4 0 -10 -6 -14 -5 -3 -10 -10 -10 -16 0 -5 9 0 20 11
24 24 24 27 5 27 -8 0 -12 -4 -9 -8z"/>
<path d="M6239 2508 c-7 -23 -4 -35 7 -35 9 0 11 4 4 12 -5 7 -7 15 -3 18 3 4
3 7 0 7 -4 0 -7 -1 -8 -2z"/>
<path d="M6170 2480 c-8 -5 -12 -12 -9 -15 4 -3 12 1 19 10 14 17 11 19 -10 5z"/>
<path d="M6272 2465 c-33 -18 -36 -23 -7 -17 14 2 28 9 31 14 9 15 1 16 -24 3z"/>
<path d="M8660 4266 c0 -2 7 -7 16 -10 8 -3 12 -2 9 4 -6 10 -25 14 -25 6z"/>
<path d="M8680 4230 c0 -5 5 -10 11 -10 5 0 7 5 4 10 -3 6 -8 10 -11 10 -2 0
-4 -4 -4 -10z"/>
<path d="M8890 3651 c0 -6 4 -13 10 -16 6 -3 7 1 4 9 -7 18 -14 21 -14 7z"/>
<path d="M7180 3560 c0 -5 5 -10 11 -10 5 0 7 5 4 10 -3 6 -8 10 -11 10 -2 0
-4 -4 -4 -10z"/>
<path d="M8896 3553 c-6 -14 -5 -15 5 -6 7 7 10 15 7 18 -3 3 -9 -2 -12 -12z"/>
<path d="M8955 3479 c-11 -17 1 -21 15 -4 8 9 8 15 2 15 -6 0 -14 -5 -17 -11z"/>
<path d="M8946 3442 c-2 -4 -1 -14 4 -22 7 -11 9 -9 7 8 -1 24 -3 26 -11 14z"/>
<path d="M7166 3427 c3 -10 9 -15 12 -12 3 3 0 11 -7 18 -10 9 -11 8 -5 -6z"/>
<path d="M7173 3245 c0 -8 4 -12 9 -9 5 3 6 10 3 15 -9 13 -12 11 -12 -6z"/>
<path d="M7121 3162 c-1 -8 8 -25 19 -39 11 -14 20 -21 20 -15 0 6 -5 14 -11
17 -6 4 -14 17 -19 29 -5 11 -9 15 -9 8z"/>
<path d="M8968 3098 c-13 -13 -26 -22 -29 -21 -4 1 -15 -8 -25 -20 -11 -12
-12 -16 -4 -10 14 11 21 13 38 13 5 0 18 14 30 30 27 35 21 39 -10 8z"/>
<path d="M8877 3043 c-4 -3 -7 -13 -7 -22 1 -13 3 -13 11 2 11 19 8 33 -4 20z"/>
<path d="M8757 2870 c10 -11 10 -17 0 -29 -7 -10 -2 -8 11 3 12 11 22 21 22
24 0 3 -3 2 -7 -1 -3 -4 -13 -1 -22 5 -13 10 -14 10 -4 -2z"/>
<path d="M8726 2815 c-3 -9 -11 -13 -17 -9 -8 4 -9 3 -5 -4 4 -7 2 -12 -3 -12
-6 0 -11 -4 -11 -8 0 -5 7 -9 15 -9 8 0 13 3 10 5 -3 3 2 14 12 24 9 10 14 21
11 23 -3 3 -8 -1 -12 -10z"/>
<path d="M8760 2820 c-8 -5 -10 -10 -5 -10 6 0 17 5 25 10 8 5 11 10 5 10 -5
0 -17 -5 -25 -10z"/>
<path d="M7190 2801 c0 -6 4 -13 10 -16 6 -3 7 1 4 9 -7 18 -14 21 -14 7z"/>
<path d="M8670 2750 c-9 -6 -10 -10 -3 -10 6 0 15 5 18 10 8 12 4 12 -15 0z"/>
<path d="M8600 2629 c0 -5 5 -7 10 -4 6 3 10 8 10 11 0 2 -4 4 -10 4 -5 0 -10
-5 -10 -11z"/>
<path d="M8646 2615 c-8 -8 -19 -15 -25 -15 -6 0 -11 -5 -11 -10 0 -7 6 -7 19
-1 10 6 21 8 24 5 3 -3 10 4 17 15 13 25 -1 28 -24 6z"/>
<path d="M8490 2480 c-13 -8 -13 -10 2 -10 9 0 20 5 23 10 8 13 -5 13 -25 0z"/>
<path d="M1120 3225 c0 -8 2 -15 4 -15 2 0 6 7 10 15 3 8 1 15 -4 15 -6 0 -10
-7 -10 -15z"/>
<path d="M8754 2228 c-9 -14 12 -16 41 -4 l30 13 -33 -1 c-19 -1 -36 -4 -38
-8z"/>
<path d="M8905 2200 c3 -5 8 -10 11 -10 2 0 4 5 4 10 0 6 -5 10 -11 10 -5 0
-7 -4 -4 -10z"/>
</g>
</svg>
