<?xml version="1.0" standalone="no"?>
<!DOCTYPE svg PUBLIC "-//W3C//DTD SVG 20010904//EN"
 "http://www.w3.org/TR/2001/REC-SVG-20010904/DTD/svg10.dtd">
<svg version="1.0" xmlns="http://www.w3.org/2000/svg"
 width="537.000000pt" height="308.000000pt" viewBox="0 0 537.000000 308.000000"
 preserveAspectRatio="xMidYMid meet">

<g transform="translate(0.000000,308.000000) scale(0.100000,-0.100000)"
fill="#000000" stroke="none">
<path d="M0 1540 l0 -1540 2685 0 2685 0 0 1540 0 1540 -2685 0 -2685 0 0
-1540z m1151 1196 c66 -12 132 -44 186 -90 59 -50 94 -143 108 -291 3 -33 10
-77 16 -99 6 -21 9 -40 7 -42 -2 -2 -16 3 -30 10 -48 25 -85 27 -165 10 -43
-10 -91 -18 -108 -18 -16 -1 -36 -7 -43 -13 -10 -10 -18 -10 -35 -1 -12 6 -33
12 -47 14 -14 1 -64 11 -111 23 l-87 21 -91 -24 c-50 -13 -91 -20 -91 -15 0 5
7 12 16 16 11 4 12 8 4 13 -9 6 -8 13 3 31 11 17 16 61 19 159 3 74 10 144 16
156 16 31 85 90 133 115 75 38 187 47 300 25z m1460 -493 l54 -17 -63 -8 c-34
-5 -95 -21 -135 -37 -40 -16 -73 -25 -75 -21 -9 23 30 69 70 83 57 20 84 20
149 0z m499 -15 c34 -23 57 -73 39 -84 -5 -3 -33 9 -62 27 -36 23 -70 34 -112
39 -54 6 -57 7 -35 17 69 29 128 29 170 1z m-1990 -68 c12 -6 20 -26 25 -60 4
-27 11 -50 17 -50 6 0 8 7 5 14 -5 12 3 14 44 9 40 -5 49 -3 49 10 0 20 104
39 154 27 45 -10 42 -6 49 -52 4 -29 0 -45 -20 -75 -14 -21 -29 -40 -33 -43
-7 -5 -24 -47 -25 -63 0 -9 -46 -46 -56 -47 -3 0 -28 20 -55 45 -27 24 -54 45
-60 45 -6 0 -19 -9 -29 -20 -23 -25 -74 -26 -101 -2 -28 26 -84 22 -125 -9
-19 -14 -42 -29 -53 -32 -10 -4 -16 -13 -13 -21 4 -9 -2 -12 -19 -8 -13 2 -24
8 -24 13 0 5 -6 9 -12 9 -7 0 -22 19 -33 41 -10 23 -41 62 -67 87 -44 42 -47
49 -46 89 2 46 0 44 69 57 36 7 135 -16 156 -36 18 -17 29 -19 66 -14 42 7 45
5 57 -23 18 -45 28 -30 25 39 -2 47 1 62 14 70 20 12 19 12 41 0z m1110 -80
c0 -5 -5 -10 -11 -10 -5 0 -7 5 -4 10 3 6 8 10 11 10 2 0 4 -4 4 -10z m443
-193 c3 -8 -4 -20 -15 -28 -27 -19 -54 -67 -62 -109 -6 -32 -5 -33 8 -15 10
12 15 15 16 7 0 -7 5 -10 10 -7 6 3 10 1 10 -6 0 -8 12 -9 38 -5 73 14 196 13
231 -1 40 -16 44 -16 36 -3 -3 6 -2 10 4 10 5 0 16 7 25 15 18 19 9 52 -30
102 -44 57 -19 76 31 23 16 -16 34 -30 41 -30 16 0 25 -33 30 -102 4 -65 -6
-78 -37 -49 -20 19 -23 19 -34 4 -9 -12 -16 -13 -31 -6 -43 23 -264 22 -316
-1 -13 -6 -18 -4 -18 8 0 22 -16 20 -43 -4 -20 -19 -23 -20 -34 -4 -7 10 -10
29 -7 43 12 61 28 101 40 101 7 0 19 8 26 18 14 19 58 52 69 52 4 0 9 -6 12
-13z m215 -8 c35 -22 27 -34 -19 -30 -9 1 -22 -5 -29 -14 -7 -8 -24 -15 -38
-15 -14 0 -22 3 -19 7 11 10 -13 33 -34 33 -11 0 -19 -5 -19 -11 0 -13 -21 -7
-22 6 0 15 82 42 122 40 19 -1 45 -8 58 -16z m-1888 -49 c0 -32 20 -56 59 -72
25 -11 25 -11 -17 -20 -32 -7 -47 -6 -59 3 -8 7 -24 15 -36 16 -28 5 -30 8
-23 36 7 28 55 79 67 71 5 -3 9 -18 9 -34z m262 8 c19 -30 32 -82 19 -73 -6 3
-21 -3 -33 -14 -23 -22 -29 -23 -68 -11 -24 7 -24 8 -5 16 34 14 45 31 45 68
0 42 20 48 42 14z m-397 -47 c3 -5 1 -12 -5 -16 -5 -3 -10 1 -10 9 0 18 6 21
15 7z m36 -92 c5 -11 13 -17 17 -15 13 8 26 -7 51 -56 27 -54 36 -58 152 -58
83 0 87 1 104 27 10 14 21 38 25 52 3 14 15 28 26 30 10 2 23 9 27 17 4 8 17
14 28 14 16 0 19 -6 16 -33 -5 -44 -28 -88 -52 -101 -25 -14 -34 -26 -29 -40
11 -30 -138 -61 -220 -45 -71 13 -119 37 -112 55 4 10 -4 18 -23 25 -17 6 -37
21 -45 34 -16 24 -21 80 -10 109 7 18 31 10 45 -15z m302 -19 c14 -13 -100
-32 -122 -21 -11 6 -29 11 -40 11 -12 0 -21 4 -21 9 0 18 164 19 183 1z m1700
-24 c21 -16 22 -30 1 -61 -15 -23 -22 -25 -104 -25 -84 0 -90 1 -109 26 -24
31 -26 44 -7 44 8 0 16 7 20 15 7 20 172 21 199 1z m-333 -60 c6 -8 21 -16 33
-18 21 -3 24 -11 16 -53 -3 -17 1 -20 31 -19 19 0 59 13 89 27 58 29 81 33 81
17 0 -5 8 -10 18 -10 10 0 35 -9 57 -20 22 -11 45 -20 52 -20 15 0 17 28 3 50
-7 11 2 19 38 37 25 12 48 20 50 18 2 -2 5 -22 6 -44 1 -22 5 -44 10 -48 4 -4
4 1 1 12 -5 15 -4 16 3 6 5 -7 8 -21 5 -30 -6 -25 -64 -83 -102 -104 -25 -13
-32 -22 -28 -37 3 -11 1 -23 -4 -26 -5 -3 -9 2 -9 10 0 32 -18 14 -29 -28 -16
-64 -15 -107 3 -100 21 8 39 -67 53 -214 4 -48 9 -62 19 -58 77 32 16 -7 -86
-54 -66 -31 -84 -35 -155 -34 -66 0 -94 6 -163 33 -71 28 -81 35 -70 48 7 8
11 31 10 51 -2 21 6 66 17 101 11 35 18 68 16 75 -7 17 30 55 51 53 17 -2 19
5 19 68 0 65 -1 69 -25 75 -14 3 -29 15 -35 26 -12 23 -105 114 -117 114 -4 0
-8 5 -8 11 0 6 12 10 28 9 61 -4 72 -1 72 23 1 59 23 84 50 53z m2400 -473 c0
-22 -156 126 -183 174 -11 20 22 -8 83 -69 55 -55 100 -102 100 -105z m-971
140 c-28 -36 -123 -123 -134 -123 -9 1 134 140 144 140 2 0 -3 -8 -10 -17z
m-1082 -15 c-3 -8 -6 -5 -6 6 -1 11 2 17 5 13 3 -3 4 -12 1 -19z m-2344 -108
c17 0 45 -52 39 -72 -1 -5 3 -8 9 -8 5 0 7 -5 4 -10 -4 -6 -16 -8 -28 -4 -22
6 -22 6 -2 -10 17 -13 14 -13 -22 2 -23 9 -39 19 -37 21 2 3 -10 10 -28 16
-22 7 -33 16 -31 28 0 11 -4 16 -11 14 -7 -3 -12 4 -13 17 0 11 1 16 4 9 3 -8
12 -9 34 -1 16 6 26 15 22 21 -3 6 4 3 18 -6 13 -9 32 -17 42 -17z m962 -39
c-4 -12 -15 -21 -26 -21 -11 0 -17 -4 -14 -10 3 -6 -1 -7 -9 -4 -18 7 -21 30
-6 39 6 4 8 10 5 15 -7 11 37 19 48 9 5 -4 6 -16 2 -28z m-895 -71 c0 -5 -5
-10 -11 -10 -5 0 -7 5 -4 10 3 6 8 10 11 10 2 0 4 -4 4 -10z m1825 -90 c3 -5
-4 -6 -15 -3 -11 3 -22 9 -25 13 -3 5 4 6 15 3 11 -3 22 -9 25 -13z m2287
-406 l47 -31 -181 -6 c-100 -4 -251 -7 -336 -7 -146 0 -157 1 -179 22 -44 41
-32 47 100 50 103 2 124 1 123 -11 -1 -20 57 -32 119 -26 62 7 83 18 68 37 -9
11 7 12 90 8 92 -5 107 -9 149 -36z m-648 -54 c23 -35 24 -40 9 -40 -25 0 -67
61 -50 72 6 4 13 8 13 8 1 0 13 -18 28 -40z m-2754 20 c0 -5 -4 -10 -9 -10 -6
0 -13 5 -16 10 -3 6 1 10 9 10 9 0 16 -4 16 -10z m-267 -7 c-67 -2 -179 -2
-250 0 -70 1 -15 3 122 3 138 0 195 -2 128 -3z m3824 -49 c131 -79 141 -74
-157 -72 -243 1 -252 2 -105 7 88 3 165 9 172 14 12 8 6 47 -8 47 -5 0 -9 11
-9 25 0 35 18 32 107 -21z m-835 -2 c32 -67 31 -66 130 -73 79 -5 67 -6 -79
-7 l-173 -2 -25 50 c-14 27 -25 54 -25 60 0 6 31 10 78 10 l77 -1 17 -37z
m-2682 8 c0 -5 -19 -9 -42 -9 l-43 2 40 7 c22 4 41 8 43 9 1 0 2 -3 2 -9z
m-670 -10 c0 -5 -5 -10 -11 -10 -5 0 -7 5 -4 10 3 6 8 10 11 10 2 0 4 -4 4
-10z m458 3 c-71 -2 -185 -2 -255 0 -71 1 -13 3 127 3 140 0 198 -2 128 -3z
m378 -67 c1 -8 -5 -14 -14 -14 -10 0 -236 -3 -503 -7 l-486 -8 -16 23 c-9 13
-14 26 -11 29 3 3 8 1 12 -5 4 -5 25 -12 47 -14 88 -10 988 -3 958 7 -7 3 -13
10 -13 16 0 16 23 -9 26 -27z m2390 -92 c6 -22 4 -25 -12 -22 -11 2 -26 25
-41 62 -20 48 -22 61 -11 73 11 13 16 8 35 -36 13 -28 26 -63 29 -77z m-666
77 c0 -22 -36 -29 -180 -35 -309 -11 -816 -19 -838 -12 -12 4 -22 14 -22 22 0
10 15 14 58 15 31 1 237 5 457 8 220 4 428 8 463 9 34 1 62 -2 62 -7z m1067 3
c-3 -3 -12 -4 -19 -1 -8 3 -5 6 6 6 11 1 17 -2 13 -5z m-2740 -79 c10 -7 16
-15 13 -18 -8 -8 -1074 -29 -1092 -22 -23 9 -29 30 -9 32 18 2 860 19 988 20
53 1 88 -4 100 -12z m3438 -5 c3 -5 2 -10 -4 -10 -5 0 -13 5 -16 10 -3 6 -2
10 4 10 5 0 13 -4 16 -10z m-1725 -50 l0 -28 -87 -6 c-49 -3 -300 -8 -560 -12
l-471 -6 1 33 2 34 130 3 c456 10 962 17 973 14 6 -2 12 -17 12 -32z"/>
<path d="M1521 1114 c0 -11 3 -14 6 -6 3 7 2 16 -1 19 -3 4 -6 -2 -5 -13z"/>
</g>
</svg>
