<?xml version="1.0" standalone="no"?>
<!DOCTYPE svg PUBLIC "-//W3C//DTD SVG 20010904//EN"
 "http://www.w3.org/TR/2001/REC-SVG-20010904/DTD/svg10.dtd">
<svg version="1.0" xmlns="http://www.w3.org/2000/svg"
 width="850.000000pt" height="475.000000pt" viewBox="0 0 850.000000 475.000000"
 preserveAspectRatio="xMidYMid meet">

<g transform="translate(0.000000,475.000000) scale(0.100000,-0.100000)"
fill="#000000" stroke="none">
<path d="M0 2375 l0 -2375 4250 0 4250 0 0 1165 c0 641 -2 1165 -4 1165 -2 0
-11 -60 -20 -132 -19 -148 -19 -147 -37 -240 -13 -72 -29 -90 -29 -35 l-1 32
-13 -30 -13 -30 -10 30 c-11 28 -11 26 -12 -29 -1 -33 -4 -57 -7 -53 -3 3 -8
104 -10 224 -2 120 -8 234 -13 253 -8 30 -9 31 -11 10 -1 -23 -2 -23 -10 -5
-5 11 -9 15 -9 9 -1 -6 -8 -11 -17 -11 -13 0 -15 8 -10 36 10 64 16 127 10
108 -8 -27 -28 -15 -33 19 l-4 29 -7 -25 c-6 -18 -8 -9 -9 35 -1 33 -6 67 -11
75 -7 11 -8 5 -5 -20 3 -19 2 -91 -2 -160 -7 -100 -11 -124 -22 -122 -8 2 -67
3 -132 3 -115 0 -119 1 -148 28 -62 58 -62 171 1 224 30 26 39 28 95 25 54 -3
60 -2 50 11 -10 12 -9 13 1 7 10 -6 12 -1 10 21 -3 24 1 28 25 31 15 2 27 8
27 14 0 7 -14 9 -37 5 -21 -3 -32 -3 -26 0 9 3 10 10 3 24 -6 10 -8 19 -4 19
4 0 -6 10 -22 22 -35 27 -44 38 -44 57 0 10 9 12 43 6 23 -4 52 -8 64 -9 12
-1 25 -5 29 -9 4 -4 26 -7 48 -7 23 0 50 -6 61 -14 34 -23 98 -37 107 -23 6 9
8 9 8 0 0 -29 18 -10 29 30 18 70 50 209 60 262 l9 50 1 -52 c1 -54 9 -67 35
-57 13 5 16 25 16 114 0 97 -2 109 -17 108 -19 -1 -241 72 -305 99 -31 14 -35
19 -25 34 6 9 28 23 49 30 21 7 43 18 49 26 6 7 17 13 23 13 6 0 29 18 51 40
22 21 47 40 55 40 13 0 13 1 0 10 -13 8 -12 10 3 10 10 0 17 8 17 20 0 17 7
20 50 20 l50 0 0 166 0 167 -87 -7 c-49 -4 -104 -12 -124 -18 -20 -5 -59 -9
-86 -7 -28 2 -51 2 -51 -1 1 -3 -2 -13 -6 -22 -10 -23 -26 -13 -26 15 l0 22
-13 -22 c-22 -39 -65 -127 -82 -168 -9 -22 -20 -49 -25 -60 -5 -11 -23 -60
-40 -109 -17 -49 -37 -103 -44 -120 -29 -63 -55 -144 -49 -150 4 -3 1 -6 -5
-6 -25 0 -10 -19 23 -30 30 -10 33 -13 21 -26 -8 -8 -26 -14 -41 -14 -33 0
-61 -14 -69 -35 -3 -9 -2 -13 4 -10 14 9 12 -9 -2 -23 -8 -8 -13 -42 -13 -92
0 -75 -1 -80 -22 -80 -14 0 -26 -10 -35 -30 -7 -16 -16 -30 -20 -30 -5 0 -8
-7 -8 -15 0 -21 -33 -95 -42 -95 -4 0 -3 11 3 24 9 20 8 27 -10 45 -30 30 -26
41 12 36 l32 -5 -32 12 c-18 6 -33 15 -33 19 0 5 -7 9 -15 9 -8 0 -15 -5 -15
-11 0 -5 5 -7 10 -4 6 3 10 1 10 -4 0 -6 -7 -11 -15 -11 -8 0 -15 7 -15 16 0
16 -27 43 -43 44 -4 0 -6 -125 -3 -277 l6 -278 -30 -34 c-26 -31 -32 -33 -57
-24 -15 6 -37 11 -48 10 -11 0 -31 3 -45 7 l-25 8 20 -21 c11 -11 27 -29 36
-38 10 -10 32 -47 50 -83 18 -36 36 -67 41 -69 12 -4 58 -77 58 -91 0 -5 -12
-10 -26 -10 -19 0 -25 4 -21 14 4 10 1 13 -9 9 -9 -3 -14 2 -14 15 0 20 -35
40 -47 28 -4 -3 1 -6 10 -6 42 0 24 -66 -20 -73 -27 -4 -26 -4 5 -6 l32 -1 0
-140 0 -140 -67 0 -68 0 0 140 c0 109 3 140 13 140 11 0 10 3 -1 15 -16 16
-91 10 -81 -7 3 -5 12 -7 19 -4 15 5 38 -17 28 -27 -3 -4 -17 -7 -30 -7 -24 0
-24 -1 -22 -100 1 -55 5 -100 9 -100 4 0 15 9 25 20 24 26 40 11 25 -22 -17
-36 -57 -55 -107 -48 -74 9 -83 24 -83 144 0 95 -2 104 -20 109 -26 7 -26 27
0 27 11 0 20 6 20 13 0 10 104 64 128 66 4 0 7 -9 7 -22 0 -33 29 -32 64 2 18
17 27 31 21 31 -5 0 -15 -9 -22 -20 -16 -25 -23 -25 -25 0 -1 11 4 20 12 20 8
0 17 4 20 10 4 6 -2 7 -17 2 -21 -7 -30 -8 -55 -3 -5 1 -3 5 2 9 11 7 34 97
42 164 3 21 9 35 14 32 5 -3 9 1 9 10 0 8 -5 16 -12 18 -9 3 -9 6 0 12 7 4 12
2 12 -3 0 -6 5 -11 11 -11 8 0 8 4 1 13 -12 14 -5 60 8 52 11 -7 5 64 -7 94
-14 35 -5 66 28 95 24 21 29 34 29 69 -1 41 -1 42 -15 17 -14 -24 -14 -24 -15
-3 0 12 -10 27 -21 34 -15 8 -19 8 -15 0 11 -16 -14 -13 -63 9 -24 11 -49 20
-56 20 -17 0 -8 39 14 61 9 9 27 29 40 45 13 16 33 39 44 51 l20 23 -26 24
c-25 23 -27 31 -27 107 l0 82 -39 -6 c-45 -6 -55 -1 -74 36 -8 16 -18 24 -21
18 -4 -6 18 -37 49 -71 55 -60 66 -90 49 -135 -22 -55 -169 -62 -221 -9 -24
23 15 25 62 2 25 -12 47 -19 51 -15 8 8 -97 126 -113 127 -29 0 -43 -73 -23
-125 l10 -26 -83 1 c-107 2 -117 1 -92 -10 11 -5 15 -9 9 -9 -14 -1 -74 -52
-74 -63 0 -6 123 -68 135 -68 3 0 41 -16 83 -36 42 -20 87 -40 100 -45 31 -12
28 -23 -18 -56 -31 -24 -37 -32 -27 -43 10 -10 7 -10 -13 0 -25 13 -25 13 -6
-8 10 -12 24 -19 30 -15 6 3 8 3 4 -2 -4 -4 -1 -20 7 -36 8 -15 15 -39 15 -54
0 -25 -1 -25 -80 -25 l-80 0 0 -42 c0 -56 12 -77 34 -59 9 8 16 10 16 7 0 -11
44 16 58 36 17 24 54 25 45 1 -19 -49 -65 -73 -138 -73 -61 0 -108 24 -120 60
-6 18 -9 16 -37 -15 -16 -19 -36 -35 -43 -35 -8 0 -17 -4 -20 -10 -9 -14 46 8
67 27 23 20 23 6 1 -19 -15 -17 -15 -18 0 -18 10 0 17 5 17 10 0 6 8 10 18 10
15 -1 15 -2 -3 -13 -11 -7 -35 -12 -54 -12 -20 0 -35 -5 -37 -13 -1 -7 0 -8 3
-2 2 5 11 10 19 10 10 0 11 -6 5 -23 -5 -12 -14 -21 -21 -19 -8 2 -9 -5 -5
-19 6 -17 -4 -12 -40 22 -26 24 -53 43 -59 42 -7 -2 -51 5 -98 16 -48 10 -91
15 -100 10 -24 -13 -112 -13 -138 1 -14 7 -30 21 -37 30 -9 13 -23 16 -54 13
-22 -2 -38 0 -35 5 6 10 -51 9 -61 -1 -6 -7 56 -33 70 -29 4 1 7 -4 7 -12 0
-8 -8 -16 -17 -18 -23 -5 -102 28 -130 54 l-23 21 0 -36 0 -37 -70 0 c-38 0
-73 -1 -77 -2 -5 -2 -11 29 -14 67 -4 39 -17 95 -29 125 -12 30 -25 67 -27 82
-3 15 -10 25 -15 22 -6 -4 -8 2 -3 15 5 17 0 28 -19 46 -14 13 -26 35 -26 48
0 13 -3 27 -7 31 -5 4 -9 12 -9 17 -3 22 -5 23 -13 10 -7 -11 -11 -5 -16 22
-4 22 -3 42 3 50 23 27 -3 40 -71 33 l-65 -5 -1 223 c-1 198 0 224 15 230 9 3
19 4 24 1 4 -3 6 4 3 15 -5 20 -7 20 -24 4 -19 -17 -19 0 -19 699 l0 717
-2770 0 -2770 0 0 -2375z m2877 1685 c101 -11 127 -23 113 -50 -6 -11 -14 -29
-20 -40 -20 -39 -3 -121 31 -150 3 -3 8 -13 12 -22 5 -14 1 -18 -21 -19 -21
-1 -18 -3 13 -10 22 -4 58 -12 80 -18 22 -6 52 -13 68 -17 15 -3 27 -10 27
-15 0 -5 7 -5 17 -2 10 4 14 2 10 -4 -4 -7 7 -16 28 -23 19 -6 35 -15 35 -19
0 -8 139 -56 157 -54 7 0 11 -3 8 -7 -2 -4 18 -14 46 -23 28 -9 62 -26 76 -37
14 -11 31 -20 37 -20 6 0 28 -11 49 -25 20 -14 37 -23 37 -20 0 3 9 -4 20 -15
12 -12 25 -18 30 -15 6 3 21 -6 35 -22 13 -15 25 -22 25 -15 0 10 4 10 16 -2
8 -9 13 -20 9 -26 -3 -5 0 -7 8 -4 7 2 22 -7 33 -21 10 -15 29 -31 42 -36 13
-5 20 -14 17 -20 -4 -6 2 -13 14 -16 11 -3 18 -10 14 -16 -4 -6 0 -8 10 -4 11
4 17 1 17 -7 0 -7 11 -19 25 -26 14 -7 25 -16 25 -20 0 -4 11 -20 24 -35 14
-16 22 -34 19 -39 -3 -6 -3 -8 2 -4 9 9 72 -83 81 -118 3 -13 10 -27 15 -30 5
-3 9 -14 9 -25 0 -11 4 -18 9 -15 9 6 35 -65 57 -159 20 -79 22 -314 4 -325
-7 -4 -10 -14 -8 -21 3 -8 -9 -50 -25 -94 -16 -44 -29 -91 -28 -105 2 -33 24
-81 36 -77 19 5 85 152 106 237 18 72 21 103 16 215 -3 72 -12 156 -21 189
-21 74 -13 87 9 14 57 -190 38 -412 -52 -603 -21 -44 -39 -82 -40 -84 -2 -2
-13 0 -26 6 -12 6 -44 19 -72 28 -27 10 -161 66 -296 126 -269 118 -328 141
-342 132 -6 -3 -7 -2 -4 3 3 6 -24 23 -61 38 -37 15 -79 34 -94 42 -14 8 -32
13 -40 11 -7 -2 -9 -2 -5 1 13 7 -115 63 -130 58 -9 -4 -11 -1 -7 6 5 7 0 9
-14 6 -15 -4 -22 -2 -22 8 0 8 -10 14 -25 14 -14 0 -25 5 -25 10 0 6 -12 8
-27 4 -22 -4 -25 -3 -13 5 12 8 8 10 -16 5 -23 -4 -33 -2 -37 10 -4 9 -11 16
-17 16 -6 0 -9 -4 -6 -9 3 -4 -6 -6 -20 -3 -17 3 -22 7 -14 12 9 6 6 11 -10
20 -12 6 -24 9 -28 6 -3 -3 0 -6 6 -6 7 0 12 -3 12 -7 0 -5 -11 -8 -24 -8 -22
0 -22 1 -8 23 17 26 11 27 -28 7 -21 -11 -36 -12 -54 -5 -14 5 -33 7 -41 4 -8
-4 -15 -1 -15 5 0 6 5 11 10 11 11 0 14 33 4 43 -4 3 -13 0 -21 -8 -8 -8 -28
-15 -45 -15 -27 0 -29 2 -17 16 12 15 11 16 -9 10 -25 -8 -26 -7 -12 29 10 26
10 26 -14 8 -15 -11 -21 -24 -18 -36 5 -19 4 -19 -21 -2 -15 9 -34 14 -45 11
-15 -5 -21 -1 -26 19 -4 14 -2 34 4 45 16 30 12 35 -13 12 -22 -21 -22 -21
-47 -2 -14 11 -33 20 -42 20 -20 0 -24 26 -5 33 6 2 9 8 5 12 -9 10 -39 -20
-36 -36 6 -23 -22 -20 -31 4 -12 30 -36 40 -51 22 -22 -27 -31 -4 -10 25 27
39 25 44 -10 23 -16 -9 -30 -23 -30 -30 0 -7 -4 -13 -10 -13 -5 0 -10 7 -10
16 0 10 -6 14 -15 10 -10 -3 -15 1 -15 14 0 10 -5 22 -11 26 -8 4 -8 9 -1 13
7 4 8 12 2 21 -7 11 -11 11 -23 1 -16 -13 -67 -5 -67 10 0 14 28 11 33 -3 2
-7 4 -1 4 15 0 25 -11 37 -19 18 -5 -13 -48 -24 -48 -12 0 5 5 13 10 16 18 11
11 22 -17 28 -16 3 -37 9 -48 12 -15 5 -16 4 -6 -3 11 -8 9 -11 -9 -17 -15 -5
-28 -1 -43 13 -12 11 -28 17 -36 14 -8 -3 -11 0 -7 7 5 7 1 9 -10 4 -13 -5
-16 -2 -12 8 5 12 -1 14 -23 11 -16 -2 -29 -3 -29 -1 0 2 4 20 10 39 9 33 8
34 -6 15 -16 -20 -16 -20 -9 3 4 13 2 22 -4 22 -6 0 -11 -9 -11 -19 0 -11 -4
-22 -9 -26 -10 -6 -5 41 6 58 4 6 -3 8 -15 5 -12 -4 -20 -3 -17 1 2 5 -7 13
-22 20 -26 12 -26 12 -20 -26 4 -21 11 -39 17 -41 5 -2 10 -13 10 -23 0 -11 5
-30 11 -41 9 -17 8 -23 -4 -29 -24 -14 -11 -209 15 -227 13 -10 16 -21 12 -40
-5 -23 -3 -25 8 -12 20 23 47 21 89 -6 21 -13 45 -24 53 -24 17 0 40 -26 32
-39 -3 -5 1 -11 9 -15 8 -3 15 -1 15 4 0 5 18 19 40 30 23 12 43 27 47 35 3 8
11 15 18 15 7 0 16 6 18 13 3 6 6 2 6 -9 1 -23 24 -48 34 -37 4 3 7 -5 7 -19
0 -14 7 -39 15 -54 9 -18 15 -23 15 -12 0 9 4 28 10 42 l9 25 40 -22 c33 -18
44 -20 60 -10 17 10 20 9 26 -14 3 -14 3 -38 0 -53 -8 -36 22 -51 34 -17 5 12
7 25 4 30 -2 4 1 7 6 7 6 0 11 7 11 16 0 8 5 12 11 9 6 -4 8 -13 5 -21 -4 -9
2 -14 15 -14 11 0 22 -7 25 -15 4 -8 11 -12 17 -8 6 4 8 -2 5 -15 -4 -15 -2
-20 5 -15 7 4 19 8 28 8 14 1 16 -6 11 -37 -3 -25 -1 -38 7 -38 6 0 12 -10 12
-22 1 -21 2 -21 6 -3 8 36 25 75 34 75 5 0 6 -7 2 -16 -5 -13 0 -15 23 -13 19
3 28 0 27 -9 -2 -6 6 -12 17 -12 13 0 20 -7 20 -20 0 -11 5 -20 10 -20 6 0 10
5 10 10 0 6 4 10 10 10 5 0 7 -13 4 -30 -6 -29 7 -42 21 -20 9 15 25 12 25 -6
0 -8 5 -12 11 -9 6 4 8 14 4 23 -3 8 6 4 20 -10 14 -14 38 -28 54 -31 24 -5
28 -10 24 -27 -3 -11 0 -20 6 -20 6 0 12 -17 12 -37 2 -26 3 -30 6 -13 4 28
42 83 43 62 0 -17 17 -33 53 -51 22 -12 30 -12 40 -2 9 10 14 0 22 -45 l10
-58 16 33 c12 24 18 29 22 17 4 -9 17 -16 29 -16 13 0 30 -9 38 -19 7 -11 17
-18 21 -15 12 7 39 -38 39 -66 l1 -25 14 25 c8 14 14 19 15 12 0 -9 10 -12 28
-10 26 3 27 1 25 -34 -1 -21 -1 -38 2 -38 9 0 32 60 24 64 -5 2 -4 3 3 2 7 -2
13 -13 12 -24 0 -17 2 -19 13 -11 10 9 13 8 13 -2 0 -11 2 -11 10 1 7 11 10 1
11 -35 1 -27 4 -41 6 -30 3 11 12 29 19 40 12 17 14 17 14 3 0 -11 5 -15 15
-12 12 5 14 2 8 -12 -6 -16 -4 -17 9 -6 13 11 15 9 10 -15 -2 -16 -9 -34 -15
-40 -6 -9 -6 -13 2 -13 6 0 20 15 31 33 18 29 20 30 20 9 0 -13 4 -20 10 -17
6 3 10 -1 10 -9 0 -9 5 -16 10 -16 6 0 10 5 10 12 0 6 2 9 5 7 2 -3 2 -15 -2
-28 -3 -12 -9 -18 -12 -13 -3 6 -19 14 -34 17 -20 6 -27 4 -27 -8 0 -10 7 -13
20 -10 16 4 21 -1 26 -26 6 -31 19 -41 26 -20 2 7 11 7 28 0 14 -5 19 -10 12
-10 -7 -1 -10 -6 -7 -11 4 -6 10 -8 15 -5 5 3 12 0 17 -7 4 -7 15 -13 23 -13
8 0 14 -6 12 -14 -2 -9 4 -12 18 -8 16 4 20 2 16 -9 -3 -8 0 -14 8 -14 13 0
53 -38 45 -43 -2 -2 -19 -9 -37 -17 -18 -7 -30 -15 -27 -18 3 -3 -21 -16 -52
-28 -32 -11 -78 -30 -103 -41 -295 -130 -714 -170 -1075 -102 -110 21 -287 71
-330 93 -16 8 -31 13 -33 11 -3 -2 1 -24 8 -49 11 -41 16 -46 59 -59 464 -149
982 -138 1411 30 67 26 215 99 262 130 27 17 46 14 34 -6 -7 -10 -105 -67
-194 -111 -326 -161 -763 -223 -1171 -165 -93 13 -304 62 -355 81 -16 6 -18 4
-13 -10 47 -123 49 -635 2 -1051 -8 -72 -14 -142 -13 -157 1 -56 -14 -158 -24
-158 -7 0 -8 23 -3 73 14 121 12 318 -2 333 -7 7 -13 17 -13 22 0 4 -11 19
-25 32 -30 28 -32 40 -5 40 24 0 27 28 5 36 -10 4 -13 13 -10 25 5 13 1 19
-10 19 -23 0 -15 34 9 38 28 6 47 28 40 47 -4 9 -2 20 5 24 8 6 8 15 0 40 -6
18 -9 52 -5 77 4 31 0 58 -13 92 -10 26 -16 52 -14 59 2 7 -8 13 -24 15 -23 2
-29 9 -31 33 -2 16 -11 35 -20 41 -14 10 -15 15 -4 26 11 11 15 10 22 -2 8
-12 11 -11 16 8 4 12 13 22 20 22 8 0 14 3 14 6 0 20 -25 100 -33 106 -14 9
-47 119 -40 132 4 5 0 7 -9 3 -11 -4 -18 2 -22 18 -3 13 -14 26 -24 29 -22 7
-29 21 -72 131 -17 43 -35 84 -40 90 -5 6 -7 21 -3 33 3 12 1 22 -5 22 -5 0
-12 19 -16 43 -11 87 -18 117 -29 117 -16 0 -57 41 -57 57 0 8 -4 12 -9 8 -5
-3 -18 8 -28 25 -17 29 -19 30 -32 13 -12 -16 -13 -15 -7 10 5 19 2 27 -7 27
-10 0 -14 16 -15 53 -3 107 -21 253 -37 297 -10 25 -17 55 -17 68 0 14 -15 35
-39 54 -22 18 -39 35 -39 38 0 13 42 50 50 45 11 -7 1 57 -10 65 -4 3 -10 22
-14 42 -6 31 -4 37 13 43 13 4 21 18 24 43 6 48 -13 233 -24 226 -5 -3 -6 2
-3 10 4 11 0 16 -14 16 -34 0 -85 -71 -106 -146 -25 -94 -47 -154 -57 -154 -4
0 -14 7 -23 15 -8 8 -32 15 -55 15 -23 0 -41 1 -41 3 0 14 56 142 86 196 55
99 162 222 253 291 85 63 80 49 -10 -29 -39 -33 -68 -61 -65 -61 2 0 -8 -12
-22 -27 -15 -16 -36 -41 -47 -56 -11 -16 -33 -45 -49 -65 -34 -44 -92 -159
-101 -203 -6 -28 -5 -30 14 -25 12 3 30 9 41 12 11 3 20 14 20 25 0 10 4 19 8
19 5 0 19 29 31 65 13 36 27 67 31 70 14 9 85 120 82 128 -1 5 2 6 8 2 5 -3
10 1 10 10 0 9 4 14 8 11 13 -8 107 95 104 113 -2 12 0 13 6 3 6 -9 13 -8 28
6 11 10 44 36 74 56 30 21 54 43 52 48 -1 5 2 7 8 3 6 -4 26 5 45 19 18 14 41
26 50 26 8 0 18 6 21 14 3 8 18 16 34 20 16 3 38 14 48 24 23 23 50 34 54 22
2 -5 21 0 42 11 21 10 54 22 73 25 21 4 30 10 23 14 -8 5 -7 9 4 13 9 4 16 3
16 -2 0 -4 11 -6 25 -3 14 2 25 9 25 14 0 6 12 7 28 4 19 -5 23 -4 12 3 -10 7
-11 13 -5 19 15 13 114 43 159 48 22 3 48 10 58 15 10 5 18 7 18 3 0 -3 12 1
26 11 15 10 37 15 52 12 31 -6 52 1 52 17 0 7 10 17 23 23 29 13 70 93 56 109
-7 8 -6 14 1 19 6 4 9 14 5 23 -3 8 0 19 7 24 10 5 8 8 -5 8 -38 0 11 30 63
39 3 0 42 -3 87 -9z m5083 -876 c0 -2 -11 -3 -24 -2 -14 1 -23 5 -20 9 4 7 44
0 44 -7z m149 -25 c30 -24 44 -51 55 -101 l6 -28 -85 0 -85 0 0 -44 c0 -58 18
-73 62 -50 18 9 41 25 51 35 21 22 47 25 47 6 0 -15 -34 -49 -66 -66 -40 -20
-119 -16 -153 8 -47 34 -61 60 -61 117 0 92 61 151 152 148 33 -1 56 -9 77
-25z m-6189 -120 c0 -18 -35 -5 -38 14 -3 16 -1 17 17 7 12 -6 21 -15 21 -21z
m6557 -41 c-3 -8 -6 -5 -6 6 -1 11 2 17 5 13 3 -3 4 -12 1 -19z m-912 -128 c3
-5 1 -10 -4 -10 -6 0 -11 5 -11 10 0 6 2 10 4 10 3 0 8 -4 11 -10z m-284 -300
c22 -12 26 -40 5 -40 -7 0 -26 7 -42 15 -54 28 -49 -2 9 -65 49 -52 57 -67 57
-100 0 -56 -34 -80 -111 -80 -68 0 -109 16 -109 42 0 22 -3 22 45 -2 71 -36
83 -25 32 30 -63 67 -77 92 -77 131 0 55 34 79 112 79 33 0 68 -5 79 -10z
m513 -11 c32 -25 56 -69 56 -104 0 -25 -1 -25 -80 -25 l-80 0 0 -50 c0 -33 5
-52 13 -56 20 -7 61 11 90 40 31 31 47 33 47 7 0 -34 -57 -65 -126 -69 -57 -4
-63 -2 -97 27 -20 18 -39 46 -43 64 -10 41 -11 116 -2 111 4 -2 9 5 13 16 3
11 11 20 17 20 5 0 7 7 4 16 -3 8 -2 12 4 9 5 -3 18 -1 27 4 10 6 43 11 74 11
42 0 63 -5 83 -21z m-6820 -48 c23 -24 28 -39 31 -92 1 -35 3 -65 4 -66 3 -8
-5 -18 -11 -15 -12 3 -10 -36 2 -59 6 -10 7 -19 2 -19 -4 0 -8 -19 -7 -42 0
-74 54 -138 116 -138 18 0 37 28 71 102 11 25 57 53 85 51 6 0 14 10 17 23 4
15 14 24 26 24 11 0 20 6 21 13 0 6 5 -1 10 -18 6 -20 4 -56 -6 -110 -12 -65
-20 -84 -42 -102 -15 -12 -28 -28 -29 -36 -1 -8 -5 -24 -9 -36 -3 -12 -2 -21
3 -21 6 0 13 -18 17 -40 4 -22 11 -40 16 -40 6 0 16 -15 24 -32 7 -18 17 -32
22 -30 4 2 10 -4 11 -14 2 -9 -1 -14 -6 -10 -6 3 -13 2 -16 -3 -4 -5 -2 -12 4
-16 18 -11 -1 -27 -25 -21 -14 4 -25 1 -28 -7 -3 -9 -7 -9 -17 0 -7 6 -19 9
-26 6 -8 -3 -14 0 -14 5 0 6 -20 21 -45 33 -24 12 -42 25 -40 29 3 4 -9 13
-25 20 -17 7 -30 16 -30 21 0 18 -44 48 -81 54 -22 4 -39 11 -39 16 0 6 -4 8
-9 4 -10 -6 -41 32 -41 51 0 6 9 14 20 17 29 8 25 23 -15 47 -40 24 -38 35 5
45 31 7 40 28 16 42 -7 4 -18 18 -25 30 -6 13 -22 25 -35 29 -14 3 -28 18 -36
40 -8 19 -22 42 -32 51 -22 20 -24 45 -3 37 10 -4 15 0 15 15 0 14 6 21 18 21
29 0 52 23 54 54 2 19 10 31 27 37 20 8 23 14 18 44 -7 43 1 44 37 6z m4814
-213 c-7 -12 -16 -25 -19 -28 -3 -3 -8 -9 -10 -15 -12 -30 -85 -135 -94 -135
-6 0 -21 7 -33 15 l-22 16 41 39 c22 22 44 40 49 40 6 0 10 4 10 10 0 12 81
92 87 86 2 -2 -2 -15 -9 -28z m1667 -26 c-3 -3 -11 0 -18 7 -9 10 -8 11 6 5
10 -3 15 -9 12 -12z m-877 -44 c-13 -24 -27 -47 -31 -53 -4 -5 -14 -19 -22
-30 -12 -17 -14 -17 -15 -3 0 9 -3 18 -7 21 -5 2 -3 3 3 1 21 -5 34 17 22 39
-10 20 2 36 28 37 7 0 14 7 18 15 3 8 10 15 16 15 6 0 1 -19 -12 -42z m-5741
-100 c25 -24 30 -38 11 -37 -18 0 -63 59 -47 59 7 0 23 -10 36 -22z m5661 -33
c-6 -14 -13 -23 -15 -21 -5 5 15 46 22 46 3 0 -1 -11 -7 -25z m-108 -40 c16
-10 12 -53 -7 -64 -17 -10 -17 -10 0 -11 9 0 17 -7 17 -15 0 -8 6 -15 13 -16
10 0 10 -2 0 -6 -10 -3 -13 -38 -13 -124 l0 -119 -67 0 -68 0 0 140 c0 133 1
140 20 141 17 1 17 2 3 6 -10 2 -18 13 -18 24 0 10 -1 22 -1 27 -5 22 90 36
121 17z m887 -15 c-1 -11 -5 -20 -9 -20 -10 0 -10 4 -2 24 8 22 13 20 11 -4z
m-3664 -41 c26 2 37 0 37 -8 0 -8 -58 -7 -66 2 -2 1 0 14 3 27 l7 25 5 -23 c3
-13 9 -23 14 -23z m2479 -111 l3 -153 62 -1 c69 -1 97 -9 88 -24 -4 -6 -68
-10 -161 -10 l-154 0 0 170 0 170 80 0 79 0 3 -152z m768 107 c0 -48 4 -52 34
-30 28 21 118 20 144 -2 18 -16 21 -32 24 -141 l3 -122 -70 0 -70 0 3 120 c3
129 0 137 -47 104 -22 -16 -23 -21 -19 -120 l4 -104 -68 0 -68 0 0 170 0 170
65 0 65 0 0 -45z m-177 9 c3 -4 2 -15 -4 -25 -7 -14 -6 -25 6 -41 18 -27 19
-87 1 -110 -7 -10 -28 -24 -47 -32 -32 -14 -32 -15 -8 -16 31 0 49 -17 49 -45
0 -12 -5 -26 -12 -33 -13 -13 -58 -16 -58 -4 0 5 -27 6 -61 4 -78 -6 -109 9
-109 53 0 17 5 36 11 42 8 8 8 17 0 31 -15 28 -14 85 2 104 28 35 62 48 123
48 43 0 65 5 74 15 13 16 23 19 33 9z m797 -4 c0 -5 -5 -10 -11 -10 -5 0 -7 5
-4 10 3 6 8 10 11 10 2 0 4 -4 4 -10z m640 -10 c0 -11 -5 -20 -11 -20 -6 0 -1
-12 10 -26 40 -51 20 -123 -41 -149 l-30 -12 31 -6 c37 -8 48 -29 33 -63 -9
-18 -19 -24 -42 -24 -16 0 -30 4 -30 9 0 4 -22 6 -49 3 -28 -2 -62 -2 -76 2
-35 9 -50 49 -31 84 12 23 12 29 -2 50 -23 35 -6 90 37 119 27 18 48 23 98 23
47 0 65 4 69 15 9 22 34 18 34 -5z m-480 -25 c0 -14 3 -14 30 0 43 22 125 20
150 -5 18 -18 20 -33 20 -140 l0 -120 -67 0 -68 0 3 111 c4 124 -2 141 -43
119 -24 -13 -25 -16 -25 -122 l0 -108 -65 0 -65 0 0 140 0 140 65 0 c52 0 65
-3 65 -15z m747 -117 c-3 -8 -6 -5 -6 6 -1 11 2 17 5 13 3 -3 4 -12 1 -19z
m43 8 c0 -8 -4 -18 -10 -21 -5 -3 -10 3 -10 14 0 12 5 21 10 21 6 0 10 -6 10
-14z m-18 -195 c-4 -57 -4 -58 -33 -57 -29 1 -42 16 -14 16 11 0 15 12 15 44
0 39 7 51 30 55 3 1 4 -25 2 -58z m-55 -18 c-3 -10 -5 -2 -5 17 0 19 2 27 5
18 2 -10 2 -26 0 -35z m-1432 -218 c0 -30 0 -30 -59 -30 -44 0 -61 4 -69 17
-20 31 9 49 72 46 55 -3 56 -4 56 -33z m-221 14 c27 -13 40 -35 26 -44 -5 -3
-24 4 -42 15 -39 24 -57 25 -64 5 -4 -9 17 -41 54 -82 33 -38 64 -78 71 -90
54 -104 -87 -192 -215 -134 -47 21 -61 38 -46 53 7 7 21 2 45 -16 34 -26 87
-35 87 -15 0 7 -25 42 -57 78 -92 109 -103 166 -40 216 26 20 43 25 94 25 34
0 73 -5 87 -11z m1667 -58 c6 9 7 -2 3 -31 -3 -25 -9 -85 -13 -135 -8 -82 -8
-75 -8 70 0 88 2 142 4 121 3 -29 7 -36 14 -25z m-1441 -141 l0 -140 -70 0
-70 0 0 140 0 140 70 0 70 0 0 -140z m350 130 c0 -5 -34 -61 -75 -122 l-76
-113 72 -5 c45 -3 74 -10 77 -17 3 -10 -34 -13 -162 -13 -91 0 -166 4 -166 8
0 5 23 41 50 81 28 41 62 93 76 117 l26 44 -60 0 c-57 0 -80 9 -65 24 11 10
303 7 303 -4z m230 -5 c35 -18 60 -62 60 -105 l0 -30 -80 0 -80 0 0 -44 c0
-75 40 -82 109 -17 24 23 37 29 45 21 14 -14 -1 -39 -44 -67 -25 -18 -47 -23
-93 -23 -56 0 -62 2 -98 39 -37 37 -39 42 -39 101 0 61 2 65 40 102 37 35 46
38 96 38 30 0 68 -7 84 -15z m-5440 -347 c0 -18 -2 -20 -9 -8 -6 8 -7 18 -5
22 9 14 14 9 14 -14z m-55 -278 c3 -5 1 -10 -4 -10 -6 0 -11 5 -11 10 0 6 2
10 4 10 3 0 8 -4 11 -10z"/>
<path d="M1632 3294 c-19 -13 -32 -54 -17 -54 12 0 55 45 55 57 0 17 -11 16
-38 -3z"/>
<path d="M2355 2940 c-3 -5 -1 -10 4 -10 6 0 11 5 11 10 0 6 -2 10 -4 10 -3 0
-8 -4 -11 -10z"/>
<path d="M2692 2788 c-7 -7 -12 -16 -12 -21 0 -5 7 -1 16 8 9 9 14 18 12 20
-2 3 -10 -1 -16 -7z"/>
<path d="M2801 2724 c0 -11 3 -14 6 -6 3 7 2 16 -1 19 -3 4 -6 -2 -5 -13z"/>
<path d="M4165 2349 c-4 -6 -5 -12 -2 -15 2 -3 7 2 10 11 7 17 1 20 -8 4z"/>
<path d="M3151 2234 c0 -11 3 -14 6 -6 3 7 2 16 -1 19 -3 4 -6 -2 -5 -13z"/>
<path d="M3435 2050 c3 -5 8 -10 11 -10 2 0 4 5 4 10 0 6 -5 10 -11 10 -5 0
-7 -4 -4 -10z"/>
<path d="M2030 1270 c0 -5 5 -10 10 -10 6 0 10 5 10 10 0 6 -4 10 -10 10 -5 0
-10 -4 -10 -10z"/>
<path d="M2092 650 c0 -14 2 -19 5 -12 2 6 2 18 0 25 -3 6 -5 1 -5 -13z"/>
<path d="M8013 3153 c-8 -3 -13 -24 -13 -54 0 -46 2 -49 26 -49 24 0 25 2 22
52 -3 50 -10 61 -35 51z"/>
<path d="M7697 2554 c-4 -4 -7 -29 -7 -56 0 -45 2 -48 26 -48 24 0 25 2 22 52
-2 38 -7 54 -18 56 -9 1 -19 0 -23 -4z"/>
<path d="M860 2305 c7 -9 15 -13 17 -11 7 7 -7 26 -19 26 -6 0 -6 -6 2 -15z"/>
<path d="M1176 2030 c7 -7 19 -7 35 -1 23 9 22 10 -10 10 -24 1 -32 -2 -25 -9z"/>
<path d="M6318 1983 c6 -2 18 -2 25 0 6 3 1 5 -13 5 -14 0 -19 -2 -12 -5z"/>
<path d="M6554 1947 c-3 -8 -4 -41 -2 -73 2 -44 7 -59 18 -59 12 0 15 14 15
69 0 47 -4 71 -12 73 -7 3 -15 -2 -19 -10z"/>
<path d="M6508 1783 c7 -3 16 -2 19 1 4 3 -2 6 -13 5 -11 0 -14 -3 -6 -6z"/>
<path d="M7996 1953 c-3 -4 -6 -37 -6 -75 0 -61 2 -69 18 -66 14 3 18 16 20
69 2 51 -1 68 -12 72 -8 3 -17 3 -20 0z"/>
<path d="M7938 1783 c6 -2 18 -2 25 0 6 3 1 5 -13 5 -14 0 -19 -2 -12 -5z"/>
<path d="M7415 1337 c-12 -46 -2 -82 23 -85 22 -3 23 -1 20 50 -2 40 -7 54
-20 56 -11 2 -19 -5 -23 -21z"/>
<path d="M8001 3864 c0 -11 3 -14 6 -6 3 7 2 16 -1 19 -3 4 -6 -2 -5 -13z"/>
<path d="M7947 3816 c-14 -13 -28 -21 -31 -18 -3 3 -6 0 -6 -7 0 -8 -6 -11
-16 -7 -8 3 -13 2 -9 -3 3 -5 1 -11 -5 -13 -6 -2 0 -9 12 -17 21 -13 22 -13
10 1 -10 13 -10 17 3 22 12 4 14 0 10 -24 -8 -44 9 -44 34 0 16 28 18 40 9 43
-8 4 -7 6 4 6 21 1 29 13 19 29 -5 9 -15 6 -34 -12z"/>
<path d="M7828 3729 c-10 -5 -18 -6 -18 -2 0 4 -5 1 -10 -7 -15 -24 -13 -203
3 -197 6 2 11 9 10 15 -2 6 3 9 11 6 9 -3 13 1 13 13 -1 10 3 17 10 16 7 -2
10 3 7 11 -3 7 2 20 10 29 8 8 13 17 10 19 -2 3 2 11 11 18 20 17 19 32 -6 64
-23 29 -26 30 -51 15z m37 -17 c-3 -3 -11 0 -18 7 -9 10 -8 11 6 5 10 -3 15
-9 12 -12z m-48 -24 c-3 -8 -6 -5 -6 6 -1 11 2 17 5 13 3 -3 4 -12 1 -19z"/>
<path d="M7876 3587 c3 -10 9 -15 12 -12 3 3 0 11 -7 18 -10 9 -11 8 -5 -6z"/>
<path d="M7614 3565 c-16 -14 -30 -31 -30 -38 -1 -6 -2 -17 -3 -24 0 -6 -10
-9 -21 -6 -41 11 -48 -10 -43 -130 5 -135 9 -157 28 -157 8 0 15 -5 15 -12 0
-12 26 15 69 72 14 19 40 50 57 69 17 19 42 56 55 82 13 27 27 49 32 49 4 0 7
7 7 15 0 9 -9 15 -24 15 -28 0 -82 42 -91 70 -8 26 -16 25 -51 -5z"/>
<path d="M7971 3564 c0 -11 3 -14 6 -6 3 7 2 16 -1 19 -3 4 -6 -2 -5 -13z"/>
<path d="M7880 3520 l-25 -21 28 12 c15 7 27 16 27 21 0 11 -1 10 -30 -12z"/>
<path d="M8428 3503 c12 -2 30 -2 40 0 9 3 -1 5 -23 4 -22 0 -30 -2 -17 -4z"/>
<path d="M7753 3386 c4 -14 47 -21 47 -8 0 5 -11 12 -25 15 -16 3 -24 0 -22
-7z"/>
<path d="M7183 3296 c-35 -18 -63 -32 -63 -30 0 2 -10 -1 -22 -6 -13 -5 -61
-25 -107 -43 -65 -27 -80 -36 -64 -41 11 -4 28 -15 38 -26 17 -19 18 -19 49 3
17 12 31 21 31 19 0 -2 8 0 17 3 10 4 15 11 12 16 -3 5 2 9 11 9 9 0 13 5 10
10 -3 6 0 10 7 10 15 0 157 92 158 103 0 12 -11 8 -77 -27z"/>
<path d="M5556 3287 c3 -10 9 -15 12 -12 3 3 0 11 -7 18 -10 9 -11 8 -5 -6z"/>
<path d="M7250 3232 c0 -7 -7 -9 -17 -5 -15 5 -16 3 -5 -8 9 -10 15 -10 24 -1
6 6 9 15 5 19 -4 3 -7 1 -7 -5z"/>
<path d="M7205 3200 c3 -5 10 -10 16 -10 5 0 9 5 9 10 0 6 -7 10 -16 10 -8 0
-12 -4 -9 -10z"/>
<path d="M6402 3160 c-8 -14 -20 -19 -36 -16 -20 4 -22 1 -18 -20 2 -13 9 -27
14 -30 5 -3 6 6 3 23 -4 17 -3 23 2 15 7 -9 16 -4 38 18 16 16 24 30 19 30 -5
0 -15 -9 -22 -20z"/>
<path d="M7210 3176 c0 -2 7 -9 15 -16 13 -11 14 -10 9 4 -5 14 -24 23 -24 12z"/>
<path d="M6608 3150 c19 -21 24 -23 32 -10 5 8 10 20 10 25 -1 6 -5 2 -11 -8
-10 -18 -12 -18 -32 -1 -20 17 -20 16 1 -6z"/>
<path d="M6492 3132 c-8 -17 -9 -28 -2 -30 5 -2 10 -10 10 -17 0 -7 6 -16 13
-18 7 -4 6 -6 -5 -6 -9 -1 -19 5 -21 12 -3 7 -6 4 -6 -6 -1 -14 5 -18 26 -15
21 2 27 8 28 33 2 38 -5 51 -17 34 -7 -10 -8 -6 -5 14 5 35 -4 35 -21 -1z"/>
<path d="M6785 3130 c-22 -11 -52 -24 -67 -29 -39 -15 -36 -33 2 -20 16 6 52
9 80 7 l50 -3 0 33 c0 37 -9 39 -65 12z"/>
<path d="M7160 3142 c0 -5 11 -14 25 -20 15 -7 25 -8 25 -2 0 6 -7 10 -15 10
-8 0 -15 5 -15 10 0 6 -4 10 -10 10 -5 0 -10 -4 -10 -8z"/>
<path d="M7000 3120 c-6 -11 -8 -20 -6 -20 3 0 10 9 16 20 6 11 8 20 6 20 -3
0 -10 -9 -16 -20z"/>
<path d="M6331 3114 c0 -11 3 -14 6 -6 3 7 2 16 -1 19 -3 4 -6 -2 -5 -13z"/>
<path d="M6301 3113 c-2 -22 18 -63 31 -62 10 0 10 2 1 6 -7 2 -13 9 -13 14 0
6 5 7 10 4 6 -3 10 -1 10 4 0 6 -6 11 -14 11 -8 0 -17 8 -19 18 -3 9 -5 12 -6
5z"/>
<path d="M6643 3089 c-1 -13 5 -19 18 -19 14 0 19 6 17 17 -4 23 -34 25 -35 2z"/>
<path d="M7400 3040 l0 -65 35 40 c21 25 35 51 35 67 0 26 -3 28 -35 25 l-35
-2 0 -65z"/>
<path d="M6655 3045 c-7 -9 -36 -16 -90 -19 -44 -3 -81 -5 -82 -5 -10 -3 0
-81 11 -90 18 -15 71 6 100 38 21 23 46 28 46 8 0 -21 -22 -44 -65 -66 -22
-11 -33 -20 -25 -21 13 0 13 -1 0 -11 -11 -8 -9 -9 10 -3 45 12 68 23 75 34 3
5 11 7 17 4 8 -5 9 -1 4 11 -6 18 -6 18 15 -1 l22 -19 -18 28 c-14 21 -16 39
-12 77 7 55 6 56 -8 35z"/>
<path d="M6803 3053 c-7 -3 -13 -16 -13 -29 0 -21 2 -23 14 -12 8 7 11 17 8
22 -3 5 2 7 11 3 10 -3 17 -2 17 2 0 11 -22 19 -37 14z"/>
<path d="M6326 3008 c18 -58 43 -112 43 -92 1 11 -5 26 -11 34 -7 8 -3 6 9 -4
13 -10 20 -22 18 -27 -3 -4 0 -11 6 -15 8 -5 9 -3 4 6 -6 10 -4 12 9 7 12 -5
7 5 -13 30 -17 21 -31 48 -31 60 0 17 -6 23 -21 23 -17 0 -19 -4 -13 -22z"/>
<path d="M6818 3003 c7 -3 16 -2 19 1 4 3 -2 6 -13 5 -11 0 -14 -3 -6 -6z"/>
<path d="M6098 2975 c-9 -20 -9 -20 6 -1 16 20 16 20 17 0 0 -11 3 -14 6 -6 4
10 10 10 29 -3 13 -8 24 -11 24 -6 0 5 -5 13 -10 16 -6 4 -8 10 -5 14 2 5 -9
8 -26 7 -20 -1 -34 -8 -41 -21z"/>
<path d="M7630 2900 c0 -9 39 -25 45 -18 2 2 -7 8 -21 15 -13 6 -24 7 -24 3z"/>
<path d="M6470 2890 c-9 -6 -10 -10 -3 -10 6 0 15 5 18 10 8 12 4 12 -15 0z"/>
<path d="M6505 2890 c-3 -5 1 -10 10 -10 9 0 13 5 10 10 -3 6 -8 10 -10 10 -2
0 -7 -4 -10 -10z"/>
<path d="M7590 2896 c0 -2 7 -6 15 -10 8 -3 15 -1 15 4 0 6 -7 10 -15 10 -8 0
-15 -2 -15 -4z"/>
<path d="M6748 2883 c6 -2 18 -2 25 0 6 3 1 5 -13 5 -14 0 -19 -2 -12 -5z"/>
<path d="M5715 2870 c-3 -5 -1 -10 5 -10 6 0 9 -4 5 -9 -3 -5 -1 -12 5 -16 5
-3 10 -24 10 -45 0 -21 3 -40 8 -42 4 -1 18 -46 31 -98 12 -52 30 -120 39
-150 l17 -55 5 99 5 98 125 -1 c106 -2 129 -5 157 -23 l34 -20 43 36 c25 20
49 36 54 36 14 0 36 29 28 37 -4 4 -16 2 -26 -5 -17 -10 -20 -10 -20 5 0 25
-45 43 -104 43 -31 0 -46 4 -38 9 9 5 -5 14 -43 26 -31 9 -55 18 -53 20 2 1
43 -4 92 -11 50 -7 92 -11 94 -9 2 2 -6 6 -19 9 -13 2 -68 14 -122 26 -54 12
-111 19 -125 16 -20 -5 -23 -4 -12 4 12 8 10 10 -12 10 -14 0 -34 3 -44 7 -13
5 -15 3 -9 -8 7 -11 6 -12 -6 -3 -8 7 -30 15 -49 19 -19 3 -42 9 -52 11 -9 3
-19 0 -23 -6z"/>
<path d="M7658 2863 c7 -3 16 -2 19 1 4 3 -2 6 -13 5 -11 0 -14 -3 -6 -6z"/>
<path d="M6130 2770 c19 -13 30 -13 30 0 0 6 -10 10 -22 10 -19 0 -20 -2 -8
-10z"/>
<path d="M6328 2763 c7 -3 16 -2 19 1 4 3 -2 6 -13 5 -11 0 -14 -3 -6 -6z"/>
<path d="M6268 2743 c7 -3 16 -2 19 1 4 3 -2 6 -13 5 -11 0 -14 -3 -6 -6z"/>
<path d="M6300 2720 c0 -5 5 -10 10 -10 6 0 10 5 10 10 0 6 -4 10 -10 10 -5 0
-10 -4 -10 -10z"/>
<path d="M6520 2600 c-19 -16 -40 -28 -47 -25 -8 2 -10 -2 -6 -12 4 -11 2 -14
-5 -9 -17 10 -15 -9 1 -23 8 -6 18 -7 22 -3 5 4 5 -1 2 -11 -4 -11 -3 -16 4
-12 6 4 8 -4 4 -22 -4 -23 -3 -22 8 7 8 20 33 50 58 69 24 19 35 31 24 28 -11
-4 -27 -2 -35 4 -13 9 -13 10 2 6 14 -5 28 10 28 29 0 12 -29 0 -60 -26z m40
-25 c0 -2 -10 -10 -22 -16 -21 -11 -22 -11 -9 4 13 16 31 23 31 12z"/>
<path d="M6002 2517 c2 -69 8 -111 16 -119 10 -10 12 -8 10 12 -3 22 1 25 35
28 20 2 37 8 37 14 0 6 3 8 7 5 3 -4 12 -2 20 4 18 15 17 -1 -3 -31 -12 -20
-10 -19 9 4 29 33 34 80 8 71 -11 -3 -27 5 -41 20 -13 14 -20 25 -16 25 4 0
15 -9 24 -21 11 -13 23 -18 34 -14 16 6 16 10 3 36 -20 37 -49 55 -103 64
l-44 7 4 -105z m132 28 c3 -8 1 -15 -3 -15 -5 0 -11 7 -15 15 -3 8 -1 15 3 15
5 0 11 -7 15 -15z m-40 -34 c4 -5 -3 -7 -14 -4 -23 6 -26 13 -6 13 8 0 17 -4
20 -9z"/>
<path d="M6637 2589 c7 -7 15 -10 18 -7 3 3 -2 9 -12 12 -14 6 -15 5 -6 -5z"/>
<path d="M6170 2583 c1 -5 7 -19 14 -33 9 -14 12 -38 8 -59 -4 -25 -2 -32 7
-27 7 5 9 16 5 28 -4 15 -3 18 6 13 9 -5 11 -4 6 4 -4 6 1 19 11 29 11 9 12
13 4 7 -12 -8 -13 -6 -8 8 4 11 3 16 -3 12 -6 -3 -10 -14 -11 -23 0 -10 -7 -3
-15 16 -13 30 -24 42 -24 25z"/>
<path d="M6668 2543 c6 -2 18 -2 25 0 6 3 1 5 -13 5 -14 0 -19 -2 -12 -5z"/>
<path d="M8010 2440 c0 -116 7 -132 43 -92 25 27 24 169 0 188 -39 29 -43 19
-43 -96z"/>
<path d="M6927 2507 c-22 -28 -18 -51 11 -55 20 -3 22 1 20 37 -2 47 -6 49
-31 18z"/>
<path d="M7470 2503 c0 -1 8 -7 18 -12 13 -7 19 -6 19 2 0 7 -9 13 -19 13 -10
0 -18 -1 -18 -3z"/>
<path d="M6350 2460 c-13 -8 -13 -10 2 -10 9 0 20 5 23 10 8 13 -5 13 -25 0z"/>
<path d="M7510 2466 c0 -2 8 -10 18 -17 15 -13 16 -12 3 4 -13 16 -21 21 -21
13z"/>
<path d="M6079 2413 c-13 -16 -12 -17 4 -4 16 13 21 21 13 21 -2 0 -10 -8 -17
-17z"/>
<path d="M6159 2403 c-13 -16 -12 -17 4 -4 16 13 21 21 13 21 -2 0 -10 -8 -17
-17z"/>
<path d="M6395 2410 c-3 -5 1 -10 10 -10 9 0 13 5 10 10 -3 6 -8 10 -10 10 -2
0 -7 -4 -10 -10z"/>
<path d="M7355 2400 c-5 -9 -4 -11 3 -6 15 9 15 1 1 -27 -10 -21 -10 -21 5 -3
9 11 19 17 22 13 4 -4 2 -13 -5 -21 -9 -11 -6 -16 20 -25 18 -6 34 -9 36 -8 2
2 -14 24 -35 47 -29 33 -41 40 -47 30z m55 -50 c0 -5 -4 -10 -10 -10 -5 0 -10
5 -10 10 0 6 5 10 10 10 6 0 10 -4 10 -10z"/>
<path d="M6420 2369 c0 -5 5 -7 10 -4 6 3 10 8 10 11 0 2 -4 4 -10 4 -5 0 -10
-5 -10 -11z"/>
<path d="M6340 2330 c0 -6 7 -10 15 -10 8 0 15 2 15 4 0 2 -7 6 -15 10 -8 3
-15 1 -15 -4z"/>
<path d="M6660 2286 c0 -2 7 -7 16 -10 8 -3 12 -2 9 4 -6 10 -25 14 -25 6z"/>
<path d="M8361 2134 c0 -11 3 -14 6 -6 3 7 2 16 -1 19 -3 4 -6 -2 -5 -13z"/>
<path d="M7438 2083 c6 -2 18 -2 25 0 6 3 1 5 -13 5 -14 0 -19 -2 -12 -5z"/>
</g>
</svg>
